<svg xmlns="http://www.w3.org/2000/svg" viewBox="0 0 250.33 36.34"><defs><style>.cls-1{fill:#fff;}</style></defs><g id="Capa_2" data-name="Capa 2"><g id="Capa_1-2" data-name="Capa 1"><path class="cls-1" d="M190.2,27.16v1.47a.6.6,0,0,1-.61.6h-16V.89a.86.86,0,0,1,.85-.86h1.1a.87.87,0,0,1,.86.86V26.55h13.21A.61.61,0,0,1,190.2,27.16Z"/><path class="cls-1" d="M211.93,18.35q0,6.13-2.19,8.66t-7.59,2.53c-3.78,0-6.36-.8-7.77-2.4s-2.1-4.52-2.1-8.79.73-7,2.21-8.71,4-2.52,7.66-2.52,6.31.79,7.7,2.39S211.93,14.05,211.93,18.35ZM195,18.3c0,3.51.47,5.85,1.42,7S199.28,27,202.15,27s4.61-.62,5.59-1.85,1.47-3.52,1.47-6.89-.47-5.84-1.4-7S205,9.57,202.15,9.57s-4.67.61-5.66,1.82S195,14.91,195,18.3Z"/><path class="cls-1" d="M234.89,18.35q0,6.13-2.2,8.66t-7.59,2.53q-5.65,0-7.76-2.4t-2.11-8.79q0-6.19,2.22-8.71c1.47-1.68,4-2.52,7.65-2.52s6.31.79,7.7,2.39S234.89,14.05,234.89,18.35ZM218,18.3c0,3.51.48,5.85,1.43,7S222.24,27,225.1,27s4.62-.62,5.6-1.85,1.47-3.52,1.47-6.89-.47-5.84-1.41-7-2.82-1.74-5.66-1.74-4.66.61-5.66,1.82S218,14.91,218,18.3Z"/><path class="cls-1" d="M241,29.23h-1.31a.71.71,0,0,1-.71-.71V8.36a.8.8,0,0,1,.8-.81h.93a.81.81,0,0,1,.8.73l.11,1.21h.13A17,17,0,0,1,245.32,8a12.7,12.7,0,0,1,3.56-.53h1a.44.44,0,0,1,.44.44V9.32a.68.68,0,0,1-.72.67h-.05l-1.38,0a12.72,12.72,0,0,0-3.34.44,13.32,13.32,0,0,0-3.16,1.27V28.52A.7.7,0,0,1,241,29.23Z"/><path class="cls-1" d="M95.2,29.2H92.7a3.2,3.2,0,0,1-3-2.14L83.68,10a1.65,1.65,0,0,0-1-.9A1.78,1.78,0,0,0,82.18,9a1.85,1.85,0,0,0-.48.07,1.62,1.62,0,0,0-.87.64,1.14,1.14,0,0,0-.15.29l-6,17a3.2,3.2,0,0,1-3,2.14H69.15L78.48,2.63A4.59,4.59,0,0,1,78.77,2a2.42,2.42,0,0,1,.29-.42A3.92,3.92,0,0,1,82.18,0,3.87,3.87,0,0,1,84,.45a3.71,3.71,0,0,1,.8.56h0a3.87,3.87,0,0,1,.47.52,4.07,4.07,0,0,1,.46.75h0L86,3h0Z"/><path class="cls-1" d="M100.5,29.23H97.3v-20A1.67,1.67,0,0,1,99,7.55h1.21a1.67,1.67,0,0,1,1.66,1.51l.07.69H102a10.19,10.19,0,0,1,3.31-2,12.57,12.57,0,0,1,4.19-.63A7.7,7.7,0,0,1,115,8.91a7,7,0,0,1,1.88,5.31v15h-3.2a1.89,1.89,0,0,1-1.89-1.89V14.88a2.85,2.85,0,0,0-1-2.39,4.85,4.85,0,0,0-3.05-.81,10.45,10.45,0,0,0-2.8.37,9.38,9.38,0,0,0-2.55,1.12V27.34A1.89,1.89,0,0,1,100.5,29.23Z"/><path class="cls-1" d="M160.4,23.92v1.25a4,4,0,0,1-3.19,3.94l-.25.05a25.19,25.19,0,0,1-4.89.46c-3.46,0-5.94-.87-7.44-2.63s-2.26-4.65-2.26-8.69.79-6.72,2.37-8.51,4.08-2.67,7.5-2.67,5.65.68,7,2.06,2.06,3.73,2.06,7.06c0,.62,0,1.18,0,1.69s-.09,1.22-.18,2.13H147.5c0,1.81.43,3.09,1.21,3.82S150.87,25,152.86,25a29.06,29.06,0,0,0,4.08-.3A22.77,22.77,0,0,0,160.4,23.92Zm-8.16-12.37c-1.78,0-3,.35-3.71,1s-1,2-1,3.82h9.17V15.5a4.11,4.11,0,0,0-1-3.1A5.21,5.21,0,0,0,152.24,11.55Z"/><path class="cls-1" d="M169.35,3.81V29.23H168a3.76,3.76,0,0,1-3.76-3.76V.05h1.34A3.75,3.75,0,0,1,169.35,3.81Z"/><path class="cls-1" d="M135.32,7.38c-.55-.07-3.49-.26-5-.26q-5.79,0-8.22,2.37t-2.44,7.94q0,5.57,1.8,7.94t6.06,2.37a12.68,12.68,0,0,0,3.46-.49,15.63,15.63,0,0,0,3.38-1.36v1.23c0,1.73-.31,3-1.12,3.6a5,5,0,0,1-.63.37c-5.85,1.48-12.36-.44-12.36-.44v2.23a2.8,2.8,0,0,0,2,2.86c1.36.41,2.14.6,7.63.6q5.31,0,7.46-2.39t2.15-8.36V12.17A4.82,4.82,0,0,0,135.32,7.38Zm-3.56,15.33a12.11,12.11,0,0,1-2.52.29c-1.84,0-3.05-.37-3.62-1.12s-.86-2.23-.86-4.45c0-2.4.34-4,1-4.68s2.2-1.07,4.56-1.07a20.59,20.59,0,0,1,2.09.11c.69.07,1.34.17,2,.28V22A18.14,18.14,0,0,1,131.76,22.71Z"/><path class="cls-1" d="M55.93,26.48l-.88.88a5.73,5.73,0,0,1-8.11,0L30.49,10.91a3.59,3.59,0,0,0-5.06,0L9,27.36a5.73,5.73,0,0,1-8.11,0L0,26.48,15.74,10.75,23,3.45l2.4-2.4a3.57,3.57,0,0,1,5.06,0l2.41,2.4,2.36,2.36,4.93,4.94Z"/><path class="cls-1" d="M48.63,33.78l-.88.88a5.72,5.72,0,0,1-8.1,0L30.49,25.5a3.58,3.58,0,0,0-5,0l-9.16,9.16a5.72,5.72,0,0,1-8.1,0l-.89-.88L25.44,15.64a3.56,3.56,0,0,1,5,0Z"/></g></g></svg>