<svg xmlns="http://www.w3.org/2000/svg" viewBox="0 0 100 100"><defs><style>.cls-1{fill:#3c434d;}.cls-2{fill:#e23237;}.cls-3{fill:#b52e31;}.cls-4{fill:#fff;}</style></defs><g id="Capa_2" data-name="Capa 2"><g id="Capa_1-2" data-name="Capa 1"><path class="cls-1" d="M86.15,0H13.85A13.85,13.85,0,0,0,0,13.85v72.3A13.85,13.85,0,0,0,13.85,100h72.3A13.85,13.85,0,0,0,100,86.15V13.85A13.85,13.85,0,0,0,86.15,0Zm8.71,82.43A12.44,12.44,0,0,1,82.43,94.86H17.57A12.44,12.44,0,0,1,5.14,82.43V17.57A12.44,12.44,0,0,1,17.57,5.14H82.43A12.44,12.44,0,0,1,94.86,17.57Z"/><path class="cls-2" d="M26.42,33.28,49.69,25l23.89,8.15L69.72,63.93,49.69,75,30,64.07Z"/><path class="cls-3" d="M73.58,33.15,49.69,25V75l20-11.07Z"/><path class="cls-4" d="M49.73,30.84,35.23,63.09,40.64,63l2.92-7.28h13L59.71,63l5.16.11Zm0,10.36,4.9,10.24H45.49L49.78,41.2Z"/></g></g></svg>