<svg xmlns="http://www.w3.org/2000/svg" viewBox="0 0 100 100"><defs><style>.cls-1{fill:#3c434d;}.cls-2{fill:#f03c2e;}</style></defs><g id="Capa_2" data-name="Capa 2"><g id="Capa_1-2" data-name="Capa 1"><path class="cls-1" d="M86.15,0H13.85A13.85,13.85,0,0,0,0,13.85v72.3A13.85,13.85,0,0,0,13.85,100h72.3A13.85,13.85,0,0,0,100,86.15V13.85A13.85,13.85,0,0,0,86.15,0Zm8.71,82.43A12.44,12.44,0,0,1,82.43,94.86H17.57A12.44,12.44,0,0,1,5.14,82.43V17.57A12.44,12.44,0,0,1,17.57,5.14H82.43A12.44,12.44,0,0,1,94.86,17.57Z"/><path class="cls-2" d="M74.06,47.78,52.23,26a3.23,3.23,0,0,0-4.55,0h0l-4.53,4.53,5.75,5.75a3.82,3.82,0,0,1,4.84,4.88l5.55,5.54A3.83,3.83,0,1,1,57,48.81l-5.17-5.17v13.6a3.83,3.83,0,1,1-4.4,6.15h0a3.84,3.84,0,0,1,0-5.42h0a3.72,3.72,0,0,1,1.25-.84V43.41a3.93,3.93,0,0,1-1.25-.84,3.83,3.83,0,0,1-.83-4.19l-5.67-5.67-15,14.95a3.24,3.24,0,0,0,0,4.56h0L47.77,74.05a3.24,3.24,0,0,0,4.56,0h0l21.73-21.7a3.23,3.23,0,0,0,0-4.55h0"/></g></g></svg>