<svg xmlns="http://www.w3.org/2000/svg" viewBox="0 0 100 100"><defs><style>.cls-1{fill:#3c434d;}.cls-2{fill:#00acd7;}</style></defs><g id="Capa_2" data-name="Capa 2"><g id="Capa_1-2" data-name="Capa 1"><path class="cls-1" d="M86.15,0H13.85A13.85,13.85,0,0,0,0,13.85v72.3A13.85,13.85,0,0,0,13.85,100h72.3A13.85,13.85,0,0,0,100,86.15V13.85A13.85,13.85,0,0,0,86.15,0Zm8.71,82.43A12.44,12.44,0,0,1,82.43,94.86H17.57A12.44,12.44,0,0,1,5.14,82.43V17.57A12.44,12.44,0,0,1,17.57,5.14H82.43A12.44,12.44,0,0,1,94.86,17.57Z"/><path class="cls-2" d="M28.76,46.33c-.08,0-.16-.08-.08-.16l.54-.62c.08-.08.16-.16.24-.16h8.68c.08,0,.16.08.08.16l-.39.62c-.08.08-.16.16-.23.16ZM25.08,48.6c-.08,0-.08-.08-.08-.16l.55-.62c0-.08.15-.16.23-.16H36.89a.17.17,0,0,1,.16.16l-.16.54c0,.08-.15.16-.23.16ZM31,50.79c-.07,0-.15-.08-.07-.16l.31-.54c.08-.08.16-.16.23-.16h4.85a.17.17,0,0,1,.16.16l-.08.54a.17.17,0,0,1-.15.16Zm25.27-4.93L52.23,47c-.4.07-.4.15-.71-.24a3.5,3.5,0,0,0-1.17-.94,4,4,0,0,0-4.38.39,5.3,5.3,0,0,0-2.51,4.62,3.8,3.8,0,0,0,3.29,3.83A4.49,4.49,0,0,0,50.9,53a4.78,4.78,0,0,0,.62-.94H46.83c-.55,0-.63-.31-.47-.7.31-.79.94-2,1.25-2.66a.64.64,0,0,1,.63-.39h8.84c-.08.62-.08,1.33-.16,2a10.73,10.73,0,0,1-9,8.92,8.62,8.62,0,0,1-6.57-1.64,7.87,7.87,0,0,1-3.13-5.4,9.7,9.7,0,0,1,2-7.12,10.82,10.82,0,0,1,6.8-4.22A8.67,8.67,0,0,1,53.56,42a7.49,7.49,0,0,1,2.81,3.44C56.69,45.7,56.61,45.78,56.29,45.86Z"/><path class="cls-2" d="M64.35,59.4a9.66,9.66,0,0,1-5.94-2.12,7.88,7.88,0,0,1-2.66-4.69,9.28,9.28,0,0,1,2-7.36,10.33,10.33,0,0,1,6.81-4.06,9,9,0,0,1,7,1.25,7.56,7.56,0,0,1,3.44,5.4,9.59,9.59,0,0,1-2.81,8.29,11.39,11.39,0,0,1-5.87,3.13A16.27,16.27,0,0,0,64.35,59.4Zm5.79-9.86a2.31,2.31,0,0,0-.08-.78,4,4,0,0,0-5-3.21,5.44,5.44,0,0,0-4.31,4.22A4,4,0,0,0,63,54.39a4.46,4.46,0,0,0,4-.16A5.47,5.47,0,0,0,70.14,49.54Z"/></g></g></svg>