<svg xmlns="http://www.w3.org/2000/svg" viewBox="0 0 100 100"><defs><style>.cls-1{fill:#3c434d;}.cls-2{fill:#ea4335;}.cls-3{fill:#4285f4;}.cls-4{fill:#34a853;}.cls-5{fill:#fbbc05;}</style></defs><g id="Capa_2" data-name="Capa 2"><g id="Capa_1-2" data-name="Capa 1"><path class="cls-1" d="M86.15,0H13.85A13.85,13.85,0,0,0,0,13.85v72.3A13.85,13.85,0,0,0,13.85,100h72.3A13.85,13.85,0,0,0,100,86.15V13.85A13.85,13.85,0,0,0,86.15,0Zm8.71,82.43A12.44,12.44,0,0,1,82.43,94.86H17.57A12.44,12.44,0,0,1,5.14,82.43V17.57A12.44,12.44,0,0,1,17.57,5.14H82.43A12.44,12.44,0,0,1,94.86,17.57Z"/><path class="cls-2" d="M56.82,41l1.6,0,4.35-4.35L63,34.84a19.54,19.54,0,0,0-31.86,9.49c.47-.33,1.49-.08,1.49-.08l8.69-1.43s.45-.74.68-.7A10.81,10.81,0,0,1,56.82,41Z"/><path class="cls-3" d="M68.88,44.35A19.53,19.53,0,0,0,63,34.84L56.82,41a10.83,10.83,0,0,1,4,8.45v1.09a5.44,5.44,0,0,1,0,10.87H50L48.92,62.5V69L50,70.1H60.87a14.12,14.12,0,0,0,8-25.75Z"/><path class="cls-4" d="M39.13,70.11H50v-8.7H39.13a5.41,5.41,0,0,1-2.24-.49l-1.57.48L31,65.75l-.38,1.47a14.07,14.07,0,0,0,8.54,2.88Z"/><path class="cls-5" d="M39.13,41.85A14.12,14.12,0,0,0,30.6,67.23l6.3-6.3a5.43,5.43,0,1,1,7.18-7.18l6.3-6.3a14.1,14.1,0,0,0-11.25-5.6Z"/></g></g></svg>