<svg xmlns="http://www.w3.org/2000/svg" viewBox="0 0 100 100"><defs><style>.cls-1{fill:#3c434d;}.cls-2{fill:#558;}</style></defs><g id="Capa_2" data-name="Capa 2"><g id="Capa_1-2" data-name="Capa 1"><path class="cls-1" d="M86.15,0H13.85A13.85,13.85,0,0,0,0,13.85v72.3A13.85,13.85,0,0,0,13.85,100h72.3A13.85,13.85,0,0,0,100,86.15V13.85A13.85,13.85,0,0,0,86.15,0Zm8.71,82.43A12.44,12.44,0,0,1,82.43,94.86H17.57A12.44,12.44,0,0,1,5.14,82.43V17.57A12.44,12.44,0,0,1,17.57,5.14H82.43A12.44,12.44,0,0,1,94.86,17.57Z"/><path class="cls-2" d="M25.78,59.51a5,5,0,0,1,.32-1.93A3.47,3.47,0,0,1,27,56.29a3.74,3.74,0,0,1,1.37-.71,6.44,6.44,0,0,1,1.68-.22,6.19,6.19,0,0,1,1.61.22,3.8,3.8,0,0,1,1.37.71A3.46,3.46,0,0,1,34,57.58a5,5,0,0,1,.34,1.93A4.82,4.82,0,0,1,34,61.39a3.62,3.62,0,0,1-.93,1.29,3.42,3.42,0,0,1-1.37.73,5.16,5.16,0,0,1-1.61.25,5.38,5.38,0,0,1-1.68-.25A3.56,3.56,0,0,1,27,62.68a3.49,3.49,0,0,1-.92-1.29,4.8,4.8,0,0,1-.32-1.88M39.53,75a18.21,18.21,0,0,1-2.41-.17,11.71,11.71,0,0,1-2.07-.44V68.54a9.2,9.2,0,0,0,1.43.34A8.21,8.21,0,0,0,38,69a3.34,3.34,0,0,0,1.15-.19,1.87,1.87,0,0,0,1-.66,3.23,3.23,0,0,0,.66-1.27,7,7,0,0,0,.24-2V35.73H48.4V66a11.94,11.94,0,0,1-.49,3.5,7.23,7.23,0,0,1-4.27,4.81,10.59,10.59,0,0,1-4.09.71m1.11-46.32A4.12,4.12,0,0,1,41,26.9a2.85,2.85,0,0,1,.85-1.12,3.21,3.21,0,0,1,1.29-.61A7.38,7.38,0,0,1,44.71,25a6.84,6.84,0,0,1,1.56.17,3.06,3.06,0,0,1,1.27.61,2.82,2.82,0,0,1,.87,1.12,3.9,3.9,0,0,1,.34,1.75,4.08,4.08,0,0,1-.34,1.75,2.94,2.94,0,0,1-.87,1.14,3.4,3.4,0,0,1-1.27.61,7,7,0,0,1-3.15,0,3.73,3.73,0,0,1-1.29-.61A3,3,0,0,1,41,30.4a4.12,4.12,0,0,1-.32-1.75M74.22,54.9a8.42,8.42,0,0,1-.79,3.76,7.21,7.21,0,0,1-2.22,2.68A10,10,0,0,1,67.72,63a18,18,0,0,1-4.59.54c-.89,0-1.72,0-2.48-.1a15.69,15.69,0,0,1-2.17-.27,19.75,19.75,0,0,1-2-.48,16.69,16.69,0,0,1-1.93-.74V55.76c.69.34,1.4.64,2.15.93l2.27.73,2.17.46a11.82,11.82,0,0,0,2,.17,7.05,7.05,0,0,0,1.71-.17A4.26,4.26,0,0,0,66,57.37a2,2,0,0,0,.65-.79,2.23,2.23,0,0,0,.22-1,2.13,2.13,0,0,0-.17-.9,1.94,1.94,0,0,0-.7-.86,11.69,11.69,0,0,0-1.66-1l-2.91-1.43L58.33,49.8A8.72,8.72,0,0,1,56.18,48a6.48,6.48,0,0,1-1.24-2.22,9.53,9.53,0,0,1-.42-3,7.18,7.18,0,0,1,.73-3.31,6.48,6.48,0,0,1,2.08-2.39,9.41,9.41,0,0,1,3.22-1.43,16.69,16.69,0,0,1,4.22-.49,18.82,18.82,0,0,1,4.63.56,23.56,23.56,0,0,1,4.51,1.68l-2.24,5.27a34.74,34.74,0,0,0-3.54-1.44,11,11,0,0,0-3.36-.56,3.57,3.57,0,0,0-2.2.54,1.78,1.78,0,0,0-.65,1.46,2,2,0,0,0,.17.88,2.55,2.55,0,0,0,.68.8,10,10,0,0,0,1.44.87l2.41,1.15,3.12,1.51a10.21,10.21,0,0,1,2.39,1.68,6.43,6.43,0,0,1,1.54,2.22,7.84,7.84,0,0,1,.54,3.07"/></g></g></svg>