<svg xmlns="http://www.w3.org/2000/svg" viewBox="0 0 100 100"><defs><style>.cls-1{fill:#3c434d;}.cls-2{fill:#326ce5;}.cls-3{fill:#fff;stroke:#fff;stroke-miterlimit:8;stroke-width:0.11px;}</style></defs><g id="Capa_2" data-name="Capa 2"><g id="Capa_1-2" data-name="Capa 1"><path class="cls-1" d="M86.15,0H13.85A13.85,13.85,0,0,0,0,13.85v72.3A13.85,13.85,0,0,0,13.85,100h72.3A13.85,13.85,0,0,0,100,86.15V13.85A13.85,13.85,0,0,0,86.15,0Zm8.71,82.43A12.44,12.44,0,0,1,82.43,94.86H17.57A12.44,12.44,0,0,1,5.14,82.43V17.57A12.44,12.44,0,0,1,17.57,5.14H82.43A12.44,12.44,0,0,1,94.86,17.57Z"/><path class="cls-2" d="M49.84,25.75a3.25,3.25,0,0,0-1.29.34l-17.41,8.3a3.29,3.29,0,0,0-1.79,2.24L25.08,55.27a3.27,3.27,0,0,0,.47,2.54l.19.26,12,15a3.32,3.32,0,0,0,2.6,1.22H59.66A3.36,3.36,0,0,0,62.26,73l12-15a3.24,3.24,0,0,0,.63-2.79L70.62,36.61a3.33,3.33,0,0,0-1.8-2.24L51.44,26.09a3.35,3.35,0,0,0-1.62-.34Z"/><path class="cls-3" d="M50,32.1a1.09,1.09,0,0,0-1,1.16v.29a6.74,6.74,0,0,0,.14,1,9.18,9.18,0,0,1,.1,1.89,1.19,1.19,0,0,1-.34.54l0,.44a13.47,13.47,0,0,0-8.68,4.17l-.38-.26a.81.81,0,0,1-.61-.07A9.92,9.92,0,0,1,37.78,40a7.83,7.83,0,0,0-.68-.73l-.23-.18a1.29,1.29,0,0,0-.72-.28,1,1,0,0,0-.83.37,1.1,1.1,0,0,0,.25,1.54l.22.17a9.17,9.17,0,0,0,.86.5,8.8,8.8,0,0,1,1.56,1.1,1.14,1.14,0,0,1,.21.6l.34.31a13.46,13.46,0,0,0-2.12,9.38l-.44.13a1.49,1.49,0,0,1-.45.45,10.62,10.62,0,0,1-1.86.31,8.26,8.26,0,0,0-1,.07l-.28.07h0A1,1,0,0,0,31.69,55a1,1,0,0,0,1.35.84h0l.29,0a8,8,0,0,0,.93-.34,10.28,10.28,0,0,1,1.82-.53,1.14,1.14,0,0,1,.59.21l.47-.08a13.6,13.6,0,0,0,6,7.51L43,63a1,1,0,0,1,.09.59,10.15,10.15,0,0,1-.94,1.71,8,8,0,0,0-.56.83l-.13.28a1,1,0,0,0,.38,1.43,1,1,0,0,0,.63.13,1,1,0,0,0,.87-.67l.13-.27a8,8,0,0,0,.3-1,7.36,7.36,0,0,1,.8-1.87,1,1,0,0,1,.45-.22l.23-.42a13.51,13.51,0,0,0,9.6,0l.21.4a.8.8,0,0,1,.53.32A9.91,9.91,0,0,1,56.28,66a8,8,0,0,0,.3.95l.13.27a1,1,0,0,0,1.85.2,1,1,0,0,0,0-1.09l-.14-.28a8,8,0,0,0-.56-.83A10.28,10.28,0,0,1,57,63.58a.78.78,0,0,1,.1-.63,2.63,2.63,0,0,1-.17-.42,13.51,13.51,0,0,0,6-7.53l.44.08a.85.85,0,0,1,.59-.22,11.41,11.41,0,0,1,1.81.54,8.19,8.19,0,0,0,.94.35,1.81,1.81,0,0,0,.27.06h0a1,1,0,0,0,1.31-.67,1.06,1.06,0,0,0,0-.66,1,1,0,0,0-.85-.69l-.3-.08a8.55,8.55,0,0,0-1-.07,9.87,9.87,0,0,1-1.87-.31,1.21,1.21,0,0,1-.45-.45l-.42-.13a13.48,13.48,0,0,0-2.17-9.36l.37-.34a.85.85,0,0,1,.2-.59,10.23,10.23,0,0,1,1.54-1.09,9.34,9.34,0,0,0,.87-.5l.22-.19a1,1,0,0,0,.34-1.44,1.09,1.09,0,0,0-.54-.43,1,1,0,0,0-1.09.25l-.23.18a9.58,9.58,0,0,0-.69.73,9.16,9.16,0,0,1-1.36,1.28,1.05,1.05,0,0,1-.63.07l-.4.28a13.65,13.65,0,0,0-8.64-4.17,4.59,4.59,0,0,0,0-.46.84.84,0,0,1-.34-.52,9.85,9.85,0,0,1,.12-1.88,8.46,8.46,0,0,0,.15-1v-.32a1.1,1.1,0,0,0-1-1.15Zm-1.3,8.07-.32,5.46h0a.94.94,0,0,1-.52.78.87.87,0,0,1-.94-.08l-4.47-3.17a10.7,10.7,0,0,1,5.16-2.81,10.09,10.09,0,0,1,1.1-.18Zm2.6,0a10.78,10.78,0,0,1,6.23,3L53.1,46.33a.91.91,0,0,1-1,.11.93.93,0,0,1-.53-.82Zm-10.5,5,4.1,3.65v0a.91.91,0,0,1-.36,1.57v0L39.28,52a10.69,10.69,0,0,1,1.53-6.78Zm18.36,0A10.86,10.86,0,0,1,60.73,52l-5.26-1.51v0a.92.92,0,0,1-.36-1.58l4.06-3.64Zm-10,3.94h1.67l1,1.3-.37,1.62L50,52.8l-1.51-.73-.35-1.62Zm5.36,4.43h.22l5.41.92A10.6,10.6,0,0,1,55.82,60l-2.1-5.07a.91.91,0,0,1,.49-1.2.82.82,0,0,1,.31-.07Zm-9.09,0a.91.91,0,0,1,.83,1.27v0l-2.08,5a10.68,10.68,0,0,1-4.31-5.4l5.37-.91h.19ZM50,55.79a.93.93,0,0,1,.84.48h0l2.65,4.78-1.06.31a10.76,10.76,0,0,1-5.87-.3l2.66-4.78a.93.93,0,0,1,.78-.46Z"/></g></g></svg>