<svg xmlns="http://www.w3.org/2000/svg" xmlns:xlink="http://www.w3.org/1999/xlink" viewBox="0 0 100 100"><defs><style>.cls-1{fill:none;}.cls-2{fill:#3c434d;}.cls-3{fill:#020204;}.cls-4{fill:#fdfdfb;}.cls-5{fill-opacity:0.26;}.cls-6{opacity:0.3;}.cls-23,.cls-24,.cls-30,.cls-31,.cls-32,.cls-33,.cls-34,.cls-41,.cls-42,.cls-49,.cls-6{isolation:isolate;}.cls-7{fill:url(#Degradado_sin_nombre_11);}.cls-8{fill:url(#Degradado_sin_nombre_11-2);}.cls-9{fill:url(#Degradado_sin_nombre_6);}.cls-10,.cls-41,.cls-42,.cls-49{fill:#7c7c7c;}.cls-11{fill:#141413;}.cls-12{fill:url(#Degradado_sin_nombre_4);}.cls-13{clip-path:url(#clip-path);}.cls-14{fill:url(#Degradado_sin_nombre_5);}.cls-15{fill:url(#Degradado_sin_nombre_7);}.cls-16{fill:url(#Degradado_sin_nombre_7-2);}.cls-17{fill:url(#Degradado_sin_nombre_8);}.cls-18{fill:url(#Degradado_sin_nombre_9);}.cls-19{fill:#d9b30d;}.cls-20{fill:#604405;}.cls-21{fill:url(#Degradado_sin_nombre_10);}.cls-22{fill:#f6da4a;}.cls-23,.cls-24{opacity:0.8;}.cls-23{fill:url(#Degradado_sin_nombre_12);}.cls-24{fill:url(#Degradado_sin_nombre_12-2);}.cls-25{fill:url(#Degradado_sin_nombre_13);}.cls-26{clip-path:url(#clip-path-2);}.cls-27{fill:url(#Degradado_sin_nombre_14);}.cls-28{clip-path:url(#clip-path-3);}.cls-29{fill:#838384;}.cls-30,.cls-42{opacity:0.25;}.cls-30{fill:url(#Degradado_sin_nombre_17);}.cls-31{opacity:0.42;fill:url(#Degradado_sin_nombre_17-2);}.cls-32,.cls-34{opacity:0.2;}.cls-32{fill:url(#Degradado_sin_nombre_17-3);}.cls-33{opacity:0.1;}.cls-34{fill:url(#Degradado_sin_nombre_18);}.cls-35{clip-path:url(#clip-path-4);}.cls-36{fill:url(#Degradado_sin_nombre_19);}.cls-37{fill:#cd8907;}.cls-38{clip-path:url(#clip-path-6);}.cls-39{fill:#f5c021;}.cls-40{fill:url(#Degradado_sin_nombre_20);}.cls-41{opacity:0.75;}.cls-43{fill:url(#Degradado_sin_nombre_22);}.cls-44{fill:url(#Degradado_sin_nombre_22-2);}.cls-45{clip-path:url(#clip-path-7);}.cls-46{fill:url(#Degradado_sin_nombre_23);}.cls-47{fill:url(#Degradado_sin_nombre_24);}.cls-48{clip-path:url(#clip-path-9);}.cls-49{opacity:0.95;}.cls-50{clip-path:url(#clip-path-10);}.cls-51{fill:url(#Degradado_sin_nombre_25);}.cls-52{fill:#d99a03;}.cls-53{fill:#f5bd0c;}.cls-54{fill:url(#Degradado_sin_nombre_26);}</style><radialGradient id="Degradado_sin_nombre_11" cx="4160.95" cy="-344.72" r="11.45" gradientTransform="matrix(0.17, -0.01, -0.01, -0.27, -683.09, -26.53)" gradientUnits="userSpaceOnUse"><stop offset="0" stop-color="#fefefc"/><stop offset="0.76" stop-color="#fefefc"/><stop offset="1" stop-color="#d4d4d4"/></radialGradient><radialGradient id="Degradado_sin_nombre_11-2" cx="2960.12" cy="-311.71" r="11.45" gradientTransform="matrix(0.23, -0.01, -0.01, -0.27, -639.21, -26.53)" xlink:href="#Degradado_sin_nombre_11"/><radialGradient id="Degradado_sin_nombre_6" cx="2330.55" cy="-3426.69" r="12.09" gradientTransform="matrix(0.15, -0.11, -0.1, -0.14, -638.38, -175.02)" gradientUnits="userSpaceOnUse"><stop offset="0" stop-color="#020204"/><stop offset="0.73" stop-color="#020204"/><stop offset="1" stop-color="#5c5c5c"/></radialGradient><linearGradient id="Degradado_sin_nombre_4" x1="3385.53" y1="-440.61" x2="3390.81" y2="-446.86" gradientTransform="matrix(0.21, 0, 0, -0.21, -673.35, -60.16)" gradientUnits="userSpaceOnUse"><stop offset="0" stop-color="#949494" stop-opacity="0.39"/><stop offset="0.5" stop-color="#949494"/><stop offset="1" stop-color="#949494" stop-opacity="0.39"/></linearGradient><clipPath id="clip-path"><path id="SVGID" class="cls-1" d="M50.7,32.48a3.07,3.07,0,0,0-1.05,1.3,2.66,2.66,0,0,0,.08,2.11c.66,1.11,2.09,2.33,3.33,2,.82-.24,1-1.44,1.17-2.28A2.32,2.32,0,0,0,54,33.91a3.68,3.68,0,0,0-2.86-1.68C51,32.22,50.83,32.37,50.7,32.48Z"/></clipPath><linearGradient id="Degradado_sin_nombre_5" x1="3171.96" y1="-428.92" x2="3188.76" y2="-438.75" gradientTransform="matrix(0.21, 0, 0, -0.21, -628.36, -60.16)" gradientUnits="userSpaceOnUse"><stop offset="0" stop-color="#747474"/><stop offset="0.13" stop-color="#8c8c8c"/><stop offset="0.25" stop-color="#a4a4a4"/><stop offset="0.5" stop-color="#d4d4d4"/><stop offset="0.62" stop-color="#d4d4d4"/><stop offset="1" stop-color="#7c7c7c"/></linearGradient><linearGradient id="Degradado_sin_nombre_7" x1="3098.24" y1="-416.74" x2="3109.42" y2="-427.29" gradientTransform="matrix(0.21, 0, 0, -0.21, -611.44, -58.23)" gradientUnits="userSpaceOnUse"><stop offset="0" stop-color="#646464" stop-opacity="0"/><stop offset="0.31" stop-color="#646464" stop-opacity="0.58"/><stop offset="0.47" stop-color="#646464"/><stop offset="0.73" stop-color="#646464" stop-opacity="0.26"/><stop offset="1" stop-color="#646464" stop-opacity="0"/></linearGradient><linearGradient id="Degradado_sin_nombre_7-2" x1="3066.13" y1="-417.28" x2="3076.66" y2="-427.42" xlink:href="#Degradado_sin_nombre_7"/><linearGradient id="Degradado_sin_nombre_8" x1="3255.03" y1="-439.99" x2="3259.62" y2="-448.19" gradientTransform="matrix(0.21, 0, 0, -0.21, -651.93, -60.16)" gradientUnits="userSpaceOnUse"><stop offset="0" stop-color="#757574" stop-opacity="0"/><stop offset="0.26" stop-color="#757574"/><stop offset="0.5" stop-color="#757574"/><stop offset="1" stop-color="#757574" stop-opacity="0"/></linearGradient><radialGradient id="Degradado_sin_nombre_9" cx="2602.94" cy="-2935.53" r="24.45" gradientTransform="matrix(0.2, -0.08, -0.06, -0.14, -642.33, -159.15)" gradientUnits="userSpaceOnUse"><stop offset="0" stop-color="#d2940a"/><stop offset="0.75" stop-color="#d89c08"/><stop offset="0.87" stop-color="#b67e07"/><stop offset="1" stop-color="#946106"/></radialGradient><linearGradient id="Degradado_sin_nombre_10" x1="3139.25" y1="-460.44" x2="3183.64" y2="-460.09" gradientTransform="matrix(0.21, 0, 0, -0.21, -628.36, -60.16)" gradientUnits="userSpaceOnUse"><stop offset="0" stop-color="#ad780a"/><stop offset="0.12" stop-color="#d89e08"/><stop offset="0.26" stop-color="#edb80b"/><stop offset="0.39" stop-color="#ebc80d"/><stop offset="0.53" stop-color="#f5d838"/><stop offset="0.77" stop-color="#f6d811"/><stop offset="1" stop-color="#f5cd31"/></linearGradient><radialGradient id="Degradado_sin_nombre_12" cx="3163.47" cy="-1279.05" r="2.54" gradientTransform="matrix(0.21, 0, 0, -0.12, -628.36, -123.17)" gradientUnits="userSpaceOnUse"><stop offset="0" stop-color="#3a2903"/><stop offset="0.56" stop-color="#735208"/><stop offset="1" stop-color="#ac8c04"/></radialGradient><radialGradient id="Degradado_sin_nombre_12-2" cx="3152.04" cy="-371.24" r="1.21" gradientTransform="matrix(0.21, 0, 0, -0.23, -628.36, -48.81)" xlink:href="#Degradado_sin_nombre_12"/><linearGradient id="Degradado_sin_nombre_13" x1="3101.36" y1="-65.24" x2="3101.71" y2="-67.4" gradientTransform="matrix(0.07, 0.22, 0.32, -0.06, -137.18, -661.83)" gradientUnits="userSpaceOnUse"><stop offset="0" stop-color="#f5ce2d"/><stop offset="1" stop-color="#d79b08"/></linearGradient><clipPath id="clip-path-2"><path id="SVGID-2" data-name="SVGID" class="cls-1" d="M45.39,32.48A5.25,5.25,0,0,0,44,35.38a3.62,3.62,0,0,0,1.41,2.7c.76.34,1,0,1.41-.43a3.1,3.1,0,0,0,.67-2.06A5.09,5.09,0,0,0,46.59,33c-.41-.57-.56-1.36-1.2-.55Z"/></clipPath><radialGradient id="Degradado_sin_nombre_14" cx="17423.32" cy="-8716.98" r="27.91" gradientTransform="matrix(0.04, -0.01, -0.01, -0.04, -763.54, -190.32)" gradientUnits="userSpaceOnUse"><stop offset="0" stop-color="#c8c8c8"/><stop offset="1" stop-color="#797978"/></radialGradient><clipPath id="clip-path-3"><path id="SVGID-3" data-name="SVGID" class="cls-1" d="M60.69,49.83a5.41,5.41,0,0,1,1.88,3.37c.31,2-.41,4-1.11,6a6.33,6.33,0,0,0-.34,1.18,2,2,0,0,0,.18,1.19,1.8,1.8,0,0,0,1.09.83,2.69,2.69,0,0,0,1.38,0A3.4,3.4,0,0,0,65,61.78a4.85,4.85,0,0,0,1.71-3,10,10,0,0,0-.09-3.5,24.13,24.13,0,0,0-1.33-4.62,13.07,13.07,0,0,0-1.65-3.11c-.69-.92-1.57-1.7-2.24-2.64A15.63,15.63,0,0,0,60,43a2.83,2.83,0,0,0-1-.68,1.91,1.91,0,0,0-1.18-.08,1.73,1.73,0,0,0-.7.39,2.09,2.09,0,0,0-.46.64,2.65,2.65,0,0,0-.16,1.55,5.68,5.68,0,0,0,.76,1.88,7,7,0,0,0,1.44,1.8c.62.51,1.36.85,2,1.35"/></clipPath><radialGradient id="Degradado_sin_nombre_17" cx="-5339.44" cy="-864.27" r="21.52" gradientTransform="translate(-881.35 -92.66) rotate(180) scale(0.17 0.16)" gradientUnits="userSpaceOnUse"><stop offset="0"/><stop offset="1" stop-opacity="0.25"/></radialGradient><radialGradient id="Degradado_sin_nombre_17-2" cx="3392.7" cy="-876.71" r="21.52" gradientTransform="matrix(0.21, 0, 0, -0.16, -673.35, -92.66)" xlink:href="#Degradado_sin_nombre_17"/><radialGradient id="Degradado_sin_nombre_17-3" cx="3363.95" cy="-439.14" r="8.52" gradientTransform="matrix(0.21, 0, 0, -0.23, -673.35, -50.69)" xlink:href="#Degradado_sin_nombre_17"/><linearGradient id="Degradado_sin_nombre_18" x1="3017.35" y1="-588.7" x2="3020.26" y2="-610.38" gradientTransform="matrix(0.22, 0, 0, -0.21, -602.72, -60.16)" gradientUnits="userSpaceOnUse"><stop offset="0"/><stop offset="1" stop-opacity="0"/></linearGradient><clipPath id="clip-path-4"><path id="SVGID-4" data-name="SVGID" class="cls-1" d="M70.94,67.75c.16.27-.26.57-.47.8a7.63,7.63,0,0,1-1.67,1.18c-1,.61-2.12,1-3.1,1.63a19.73,19.73,0,0,0-1.83,1.48,15.8,15.8,0,0,1-1.48,1.35,4.08,4.08,0,0,1-4.26.41,2.9,2.9,0,0,1-1.34-1,3.39,3.39,0,0,1-.38-1.67,16.5,16.5,0,0,1,.37-3c.12-.84.31-1.67.38-2.52.13-1.54-.13-3.1.06-4.63.05-.5,0-1.12.33-1.46s.92-.18,1.38-.17a8.7,8.7,0,0,1,1.67.28c.34.09.67.24,1,.31a8,8,0,0,0,1.76.16c.64,0,1.25-.3,1.89-.3a2.23,2.23,0,0,1,.77.14,2.07,2.07,0,0,1,.7.38,1.44,1.44,0,0,1,.31.52,3.87,3.87,0,0,1,.2.88,3.51,3.51,0,0,0,.07.8,6.3,6.3,0,0,0,1.55,2.08,4.53,4.53,0,0,0,1,.82,2,2,0,0,1,.92.81c.11.25-.09.63.11.81Z"/></clipPath><linearGradient id="Degradado_sin_nombre_19" x1="3513.91" y1="-626.84" x2="3551.69" y2="-565.58" gradientTransform="matrix(0.21, 0, 0, -0.21, -694.78, -60.16)" gradientUnits="userSpaceOnUse"><stop offset="0" stop-color="#3e2a06"/><stop offset="1" stop-color="#ad780a"/></linearGradient><clipPath id="clip-path-6"><path id="SVGID-6" data-name="SVGID" class="cls-1" d="M70.94,67.75c.16.27-.26.57-.47.8a7.63,7.63,0,0,1-1.67,1.18c-1,.61-2.12,1-3.1,1.63a19.73,19.73,0,0,0-1.83,1.48,14.53,14.53,0,0,1-1.48,1.35,4.08,4.08,0,0,1-4.26.41,3,3,0,0,1-1.34-1,3.45,3.45,0,0,1-.37-1.68,15.67,15.67,0,0,1,.36-3c.12-.84.31-1.67.38-2.52.13-1.54-.13-3.1.06-4.63.05-.49,0-1.12.34-1.46s.91-.18,1.37-.17a8.57,8.57,0,0,1,1.67.28c.34.09.67.24,1,.31a8,8,0,0,0,1.76.16c.64,0,1.25-.3,1.89-.3a2.23,2.23,0,0,1,.77.14,2,2,0,0,1,.7.38,1.44,1.44,0,0,1,.31.52,3.83,3.83,0,0,1,.2.89,3.56,3.56,0,0,0,.07.8,6.16,6.16,0,0,0,1.55,2.07,4.76,4.76,0,0,0,1,.82,2,2,0,0,1,.92.81c.11.25-.09.63.12.81Z"/></clipPath><linearGradient id="Degradado_sin_nombre_20" x1="3123.67" y1="-564.64" x2="3122.56" y2="-574.64" gradientTransform="matrix(0.21, 0, 0, -0.21, -606.94, -60.16)" gradientUnits="userSpaceOnUse"><stop offset="0" stop-color="#f3cd0c"/><stop offset="1" stop-color="#f3cd0c" stop-opacity="0"/></linearGradient><radialGradient id="Degradado_sin_nombre_22" cx="2532.62" cy="493.77" r="13.24" gradientTransform="matrix(0.28, 0.08, 0.08, -0.29, -686.65, 18.07)" gradientUnits="userSpaceOnUse"><stop offset="0" stop-color="#110800"/><stop offset="0.59" stop-color="#a65a00" stop-opacity="0.8"/><stop offset="1" stop-color="#ff921e" stop-opacity="0"/></radialGradient><radialGradient id="Degradado_sin_nombre_22-2" cx="2615.18" cy="200.25" r="13.24" gradientTransform="matrix(0.28, 0.05, 0.08, -0.21, -686.65, -36.95)" xlink:href="#Degradado_sin_nombre_22"/><clipPath id="clip-path-7"><path id="SVGID-7" data-name="SVGID" class="cls-1" d="M65.92,59.91a1.12,1.12,0,0,0-.33-.48,2,2,0,0,0-.5-.31,5.7,5.7,0,0,0-1.15-.29l-1.1-.21a2.83,2.83,0,0,0-1.16,0,2,2,0,0,0-.89.47,2.54,2.54,0,0,0-.58.83,3.48,3.48,0,0,0-.28,1.75,2.14,2.14,0,0,0,.44,1.23,1.88,1.88,0,0,0,.91.54,3.09,3.09,0,0,0,1.83,0,4.76,4.76,0,0,0,2.41-1.82,2.39,2.39,0,0,0,.43-.91,1.31,1.31,0,0,0,0-.76"/></clipPath><radialGradient id="Degradado_sin_nombre_23" cx="9776.25" cy="3444.14" r="16.14" gradientTransform="matrix(0.08, 0.03, 0.02, -0.04, -743.01, -146.04)" gradientUnits="userSpaceOnUse"><stop offset="0" stop-color="#7c7c7c"/><stop offset="1" stop-color="#7c7c7c" stop-opacity="0.33"/></radialGradient><linearGradient id="Degradado_sin_nombre_24" x1="3429.31" y1="-560.26" x2="3431.67" y2="-560.16" gradientTransform="matrix(0.21, 0, 0, -0.21, -673.35, -60.16)" xlink:href="#Degradado_sin_nombre_23"/><clipPath id="clip-path-9"><path id="SVGID-9" data-name="SVGID" class="cls-1" d="M42.67,43s-.86,1.07-1.33,1.72-1,1.12-1.44,1.81a18.3,18.3,0,0,0-1.59,2.35c-.36.75-.4,1.52-.72,2.33s-.63,1.79-1,2.58-.9,1.63-1.17,2.28-.64,1-.69,1.72a4.46,4.46,0,0,0,.64,2.82,20.67,20.67,0,0,0,4.08,4.7,5.14,5.14,0,0,0,2.46,1.44c.87.22,2.33.5,2.81-.21s.39-1-.12-1.8a6.5,6.5,0,0,0-1.65-1.61c-.84-.72-3.14-2.51-3.82-3.24s-1.2-.57-.93-1.06-.37-.67-.45-1.29A18.46,18.46,0,0,1,38,53.77c.08-.58.2-.49.59-1.35a18.9,18.9,0,0,1,1.19-2.27c.49-.81,1.45-1.7,1.87-2.57A10,10,0,0,0,42.38,45c.14-.77.29-2,.29-2Z"/></clipPath><clipPath id="clip-path-10"><path id="SVGID-10" data-name="SVGID" class="cls-1" d="M35.86,59.19a1.55,1.55,0,0,1,.85-.08,2,2,0,0,1,.8.34,5.14,5.14,0,0,1,1.19,1.27c.78,1.09,1.54,2.19,2.23,3.34a29,29,0,0,0,1.71,2.77c.42.57.89,1.1,1.31,1.67a5.68,5.68,0,0,1,1,1.87,3.74,3.74,0,0,1-.27,2.69,3.47,3.47,0,0,1-1.31,1.4A3.34,3.34,0,0,1,41.5,75,9.21,9.21,0,0,1,38.57,74c-2-.77-4.07-1-6.08-1.62-.61-.19-1.22-.41-1.84-.58a4.6,4.6,0,0,1-.82-.26,1.38,1.38,0,0,1-.65-.54,1.29,1.29,0,0,1-.16-.64,2.42,2.42,0,0,1,.13-.65c.15-.41.4-.79.56-1.2A5,5,0,0,0,30,66.38c0-.72-.15-1.43-.2-2.16a3.86,3.86,0,0,1,0-1,1.57,1.57,0,0,1,.43-.85A1.59,1.59,0,0,1,31,62a3.77,3.77,0,0,1,.89-.06,8.81,8.81,0,0,0,.89,0,2.13,2.13,0,0,0,.86-.24,2,2,0,0,0,.61-.58,7.71,7.71,0,0,0,.44-.72,4.89,4.89,0,0,1,.46-.72,1.87,1.87,0,0,1,.67-.51"/></clipPath><linearGradient id="Degradado_sin_nombre_25" x1="3225.49" y1="-575.44" x2="3262.99" y2="-638.37" gradientTransform="matrix(0.21, 0, 0, -0.21, -658.36, -60.16)" gradientUnits="userSpaceOnUse"><stop offset="0" stop-color="#b98309"/><stop offset="1" stop-color="#382605"/></linearGradient><linearGradient id="Degradado_sin_nombre_26" x1="3267.06" y1="-589.37" x2="3278.87" y2="-611.59" gradientTransform="matrix(0.21, 0, 0, -0.21, -658.36, -60.16)" gradientUnits="userSpaceOnUse"><stop offset="0" stop-color="#ebc40c"/><stop offset="1" stop-color="#ebc40c" stop-opacity="0"/></linearGradient></defs><g id="Capa_2" data-name="Capa 2"><g id="Capa_1-2" data-name="Capa 1"><path class="cls-2" d="M86.15,0H13.85A13.85,13.85,0,0,0,0,13.85v72.3A13.85,13.85,0,0,0,13.85,100h72.3A13.85,13.85,0,0,0,100,86.15V13.85A13.85,13.85,0,0,0,86.15,0Zm8.71,82.43A12.44,12.44,0,0,1,82.43,94.86H17.57A12.44,12.44,0,0,1,5.14,82.43V17.57A12.44,12.44,0,0,1,17.57,5.14H82.43A12.44,12.44,0,0,1,94.86,17.57Z"/><path class="cls-3" d="M59.92,42.47c.55,1.2,1.16,2.36,1.7,3.56a25.58,25.58,0,0,1,2.18,7.23,17.13,17.13,0,0,1-.6,7.5,17.56,17.56,0,0,1-4.63,7.1,14.06,14.06,0,0,1-8.93,4.27,12.64,12.64,0,0,1-6.33-1.56A14.38,14.38,0,0,1,39,67.15a11.77,11.77,0,0,1-2.49-4.9A12.22,12.22,0,0,1,37,55.53c.55-1.54,1.36-3,1.93-4.48a41,41,0,0,1,1.82-5c.75-1.43,1.89-2.65,2.49-4.14A20.11,20.11,0,0,0,44,39.11a6.18,6.18,0,0,1,1.19-2.6A4.72,4.72,0,0,1,48.23,35a10.06,10.06,0,0,1,3.45.3,24.5,24.5,0,0,1,2.66.77,8.67,8.67,0,0,1,2.12,1,7.44,7.44,0,0,1,2.08,2.44c.53.93.93,1.93,1.38,2.9Z"/><path class="cls-3" d="M50.24,72.15c.93.06,1.85.15,2.77.29s1.61.28,2.4.47a18.63,18.63,0,0,0,3.76.72,4.22,4.22,0,0,0,1-.08,2,2,0,0,0,1.64-1.69,3,3,0,0,0-.11-1.49,11.62,11.62,0,0,0-1.42-2.64c-.29-.49-.55-1-.87-1.49A4.32,4.32,0,0,0,58.23,65a3.59,3.59,0,0,0-2.29-.49,6,6,0,0,0-2.25.73,5.68,5.68,0,0,0-2.46,2.19c-.19.33-.33.7-.49,1a3.11,3.11,0,0,1-.61,1c-.3.31-.69.52-1,.82a1.54,1.54,0,0,0-.37.53.91.91,0,0,0,0,.63.9.9,0,0,0,.25.36,1.33,1.33,0,0,0,.39.21,2.87,2.87,0,0,0,.87.13Z"/><path class="cls-3" d="M47.49,72.09a12.75,12.75,0,0,0-2.29.32c-.72.14-1.44.31-2.15.5a16.47,16.47,0,0,1-3.66.72,3.58,3.58,0,0,1-1-.09,2.2,2.2,0,0,1-.88-.4,2.16,2.16,0,0,1-.73-1.28,3.1,3.1,0,0,1,.1-1.48,13.19,13.19,0,0,1,1.4-2.65c.29-.49.54-1,.85-1.48A4.14,4.14,0,0,1,40.3,65a3.48,3.48,0,0,1,2.23-.5,5.91,5.91,0,0,1,2.19.73,6.16,6.16,0,0,1,2.39,2.19c.39.66.62,1.42,1.07,2a8.87,8.87,0,0,1,.76,1,1.54,1.54,0,0,1,.2.58,1,1,0,0,1-.15.6.87.87,0,0,1-.3.27,1.34,1.34,0,0,1-.38.14,4.46,4.46,0,0,1-.82,0ZM43.18,40c-.11-1.31-.09-2.62-.13-3.93s-.17-2.51-.12-3.77a8.93,8.93,0,0,1,.82-3.72,6.33,6.33,0,0,1,2.63-2.74,7.25,7.25,0,0,1,3.49-.8,8.06,8.06,0,0,1,4.6,1.47,8.22,8.22,0,0,1,2.08,2.24,8.52,8.52,0,0,1,1.06,2.39,25.21,25.21,0,0,1,.46,5.36c.08,1.7.35,3.39.26,5.09a2.82,2.82,0,0,1-.22,1.08,1.89,1.89,0,0,1-.75.76,2.78,2.78,0,0,1-1,.33c-.71.11-1.44,0-2.15.11-1,.09-2,.48-3.07.64a19.37,19.37,0,0,1-3.73,0c-.5,0-1,0-1.49-.08A4.38,4.38,0,0,1,44.47,44a2.63,2.63,0,0,1-.72-.56,2.14,2.14,0,0,1-.44-.81,5.78,5.78,0,0,1-.05-1.38c0-.42,0-.84-.08-1.26Z"/><path class="cls-4" d="M45.14,39.46a1.91,1.91,0,0,0-.36.76,3.86,3.86,0,0,0-.11.84,7.24,7.24,0,0,1-.14,1.68,5.18,5.18,0,0,1-.86,1.58,9.4,9.4,0,0,0-1.52,2.73A4.77,4.77,0,0,0,42,48.93a18.7,18.7,0,0,0-1.75,3.16,17.25,17.25,0,0,0-1.43,5.27,13.43,13.43,0,0,0,1,6.58,10.76,10.76,0,0,0,2.81,3.92,9.37,9.37,0,0,0,2.05,1.36,9.21,9.21,0,0,0,8.25-.08,16.26,16.26,0,0,0,3.49-2.76,12.16,12.16,0,0,0,1.78-2,11.35,11.35,0,0,0,1.49-4.92c.35-3,.37-6.17-1-8.9A9.83,9.83,0,0,0,56.88,48a13.92,13.92,0,0,0-1.13-3.79c-.4-.87-.89-1.69-1.26-2.57-.15-.37-.28-.74-.45-1.09a3.35,3.35,0,0,0-.66-1,2.76,2.76,0,0,0-1-.61,4.78,4.78,0,0,0-1.19-.2c-.8,0-1.6.07-2.4,0-.64,0-1.28-.13-1.92-.1a2.92,2.92,0,0,0-.93.2,1.87,1.87,0,0,0-.77.56Z"/><path class="cls-5" d="M44.74,42.45a4.88,4.88,0,0,0,1.55,2.1A3.78,3.78,0,0,0,47,45a1.72,1.72,0,0,0,.86.16,2,2,0,0,0,.8-.27c.25-.14.48-.31.73-.47.41-.26.85-.47,1.28-.71a7,7,0,0,0,1.46-1,7.84,7.84,0,0,1,.61-.54,1.18,1.18,0,0,1,.76-.25,4.2,4.2,0,0,1,.59.14,1,1,0,0,0,.3,0,.53.53,0,0,0,.27-.13.48.48,0,0,0,.12-.35.89.89,0,0,0-.11-.35,4.18,4.18,0,0,1-.37-.65,2.08,2.08,0,0,1,0-.66,1.31,1.31,0,0,0-.1-.65.79.79,0,0,0-.36-.34,1.33,1.33,0,0,0-.48-.14,6.84,6.84,0,0,0-1,.05c-.45,0-.9,0-1.34,0s-1.11.19-1.67.2a12.11,12.11,0,0,0-1.9-.11,4.45,4.45,0,0,0-.79.23,2.41,2.41,0,0,1-.8.15c-.31,0-.61-.11-.92-.13a1.21,1.21,0,0,0-.46.05.66.66,0,0,0-.34.3.47.47,0,0,0-.07.25,1.24,1.24,0,0,0,0,.27,3.41,3.41,0,0,0,.19.5c.23.6.28,1.25.49,1.86Z"/><path class="cls-6" d="M43.94,40.08a6.63,6.63,0,0,1,1.48,1.25,6.54,6.54,0,0,0,1.23,1.29,2.75,2.75,0,0,0,1.23.4,4.41,4.41,0,0,0,1.53-.16,6,6,0,0,0,1.31-.53A13.89,13.89,0,0,1,53,41a5.22,5.22,0,0,0,.56-.18.86.86,0,0,0,.43-.36,1.51,1.51,0,0,0,.11-.52c0-.18.09-.36.13-.55a.87.87,0,0,0,0-.55.8.8,0,0,0-.35-.33,1.35,1.35,0,0,0-.49-.11,8.63,8.63,0,0,0-1,.1c-.45,0-.9,0-1.34,0s-1.11.14-1.66.16-1.27-.07-1.91-.09a5.63,5.63,0,0,0-.82,0,2.28,2.28,0,0,0-.77.27,7,7,0,0,0-.6.48,2.3,2.3,0,0,1-.33.21,1.26,1.26,0,0,1-.38.1H44.3a.4.4,0,0,0-.36.46Z"/><path class="cls-7" d="M45.39,32.48a1.23,1.23,0,0,0-.8.36,1.72,1.72,0,0,0-.47.76A4.62,4.62,0,0,0,44,35.38,5.09,5.09,0,0,0,44.3,37a2,2,0,0,0,.43.68,1.41,1.41,0,0,0,1.45.39,1.76,1.76,0,0,0,.65-.4,2.2,2.2,0,0,0,.54-.95,3.48,3.48,0,0,0,.13-1.11,4.89,4.89,0,0,0-.21-1.37,3.19,3.19,0,0,0-.71-1.2,1.9,1.9,0,0,0-.53-.4,1.27,1.27,0,0,0-.66-.14Z"/><path class="cls-8" d="M50.7,32.48a2.73,2.73,0,0,0-1.05,1.3,3.25,3.25,0,0,0,.08,2.11A3.55,3.55,0,0,0,51,37.66a2.41,2.41,0,0,0,1,.39,2,2,0,0,0,1.07-.18,2.1,2.1,0,0,0,.88-1,3.38,3.38,0,0,0,.29-1.3A4.16,4.16,0,0,0,54,33.91a2.84,2.84,0,0,0-1.09-1.46,2.14,2.14,0,0,0-.86-.33,1.78,1.78,0,0,0-.91.11,2.3,2.3,0,0,0-.46.25Z"/><path class="cls-6" d="M45.29,37.33l-.86.78a1.38,1.38,0,0,0-.37.53,3.6,3.6,0,0,0-.08.56,1.38,1.38,0,0,0,0,.2.36.36,0,0,0,0,.1.12.12,0,0,0,0,.08.26.26,0,0,0,.15.07.44.44,0,0,0,.16,0A1.49,1.49,0,0,1,45,40l.6.43a3,3,0,0,0,1.55.45,7.46,7.46,0,0,0,1.63-.17A8,8,0,0,0,50,40.32a7.34,7.34,0,0,0,1.7-1,7.69,7.69,0,0,0,.7-.58l.22-.21a.84.84,0,0,1,.26-.15,1,1,0,0,1,.46,0,1.45,1.45,0,0,0,.35,0,.57.57,0,0,0,.18,0,.45.45,0,0,0,.14-.1.34.34,0,0,0,.07-.22.46.46,0,0,0-.06-.22.74.74,0,0,0-.35-.28,3.52,3.52,0,0,0-.61-.18,9.09,9.09,0,0,1-1.83-.66l-.85-.46a4.34,4.34,0,0,0-.91-.4,3.47,3.47,0,0,0-2.18.1,4.76,4.76,0,0,0-2,1.37Z"/><path class="cls-9" d="M46.8,36.43c.3-.33.5-.74.79-1.08a1.91,1.91,0,0,1,.5-.44,1.13,1.13,0,0,1,.64-.16,1.17,1.17,0,0,1,.67.32,2,2,0,0,1,.42.61,3.78,3.78,0,0,0,.33.63,3.42,3.42,0,0,0,.58.49,1.73,1.73,0,0,1,.28.26.91.91,0,0,1,.17.34.81.81,0,0,1,0,.38.8.8,0,0,1-.22.32,1.26,1.26,0,0,1-.69.32,13.5,13.5,0,0,1-1.55-.07c-.52,0-1,.2-1.56.18a1.39,1.39,0,0,1-.74-.22,1.2,1.2,0,0,1-.27-.28,1,1,0,0,1-.11-.37,1,1,0,0,1,.08-.37,1.27,1.27,0,0,1,.2-.31c.15-.2.35-.36.51-.55Z"/><path class="cls-10" d="M52.63,27.17c-.43.31-.24.69-.05,1.07s-.41,1.48-.42,1.53a5,5,0,0,0,1.49-.95c.38-.47,1.34.63,1.28.46s-1.86-2.41-2.3-2.11Z"/><path class="cls-3" d="M51.78,33.89a1,1,0,0,0-.5.17,1.3,1.3,0,0,0-.37.37,1.93,1.93,0,0,0-.31,1,2.08,2.08,0,0,0,.11.78,1.54,1.54,0,0,0,.44.65,1.25,1.25,0,0,0,1.51.07,1.3,1.3,0,0,0,.42-.48,1.73,1.73,0,0,0,.2-.62,1.85,1.85,0,0,0-.19-1.11,1.54,1.54,0,0,0-.82-.75,1.2,1.2,0,0,0-.49-.08Z"/><path class="cls-11" d="M52.2,35.05c-.15.05-.38,0-.44.16a.22.22,0,0,0,.1.26.45.45,0,0,0,.51-.23.19.19,0,0,0-.09-.23s-.05,0-.08,0Z"/><path class="cls-12" d="M52.87,35.42c.19-.19-.14-.71-.4-.92s-.74-.32-.72-.15.27.38.44.55S52.77,35.52,52.87,35.42Z"/><g class="cls-13"><path class="cls-14" d="M48.93,34.18a4.14,4.14,0,0,1,1.37-.74,3.77,3.77,0,0,1,3.09.39,9.41,9.41,0,0,1,.89.67,3.48,3.48,0,0,0,.94.57,1.48,1.48,0,0,0,.59.08,1.17,1.17,0,0,0,.51-.19,1.34,1.34,0,0,0,.36-.39,1.74,1.74,0,0,0,.22-1,5.54,5.54,0,0,0-.81-2c-.11-.2-.21-.4-.34-.59a3.25,3.25,0,0,0-1.68-1.17,11,11,0,0,0-2-.39,4.83,4.83,0,0,0-.93,0,9.22,9.22,0,0,0-1,.28l-.49.11a1.4,1.4,0,0,0-.46.22,1.19,1.19,0,0,0-.37.63,2,2,0,0,0,0,.74A7.2,7.2,0,0,1,49,32.77c0,.34-.11.67-.1,1a1.54,1.54,0,0,0,0,.3"/></g><path class="cls-15" d="M52.33,31.09a1.46,1.46,0,0,0-.22.33,3.08,3.08,0,0,1,1,.43,4.1,4.1,0,0,1,1.37,1.63l.2-.27a4.12,4.12,0,0,0-1.4-1.69,3,3,0,0,0-1-.43Z"/><path class="cls-16" d="M45.36,31.42h-.2a2.34,2.34,0,0,1,.69.18,3,3,0,0,1,.78.53,4.07,4.07,0,0,1,.94,1.4,3.64,3.64,0,0,0-.34-1.12c-.09-.09-.17-.19-.27-.28a2.78,2.78,0,0,0-.77-.53,2.39,2.39,0,0,0-.83-.19Z"/><path class="cls-3" d="M44.67,35a2.31,2.31,0,0,0,.07,1.14,1.81,1.81,0,0,0,.4.64,1.27,1.27,0,0,0,.39.3.72.72,0,0,0,.48.06.68.68,0,0,0,.37-.25,1.23,1.23,0,0,0,.21-.41,2.32,2.32,0,0,0,0-1.33,1.74,1.74,0,0,0-.51-.83,1.06,1.06,0,0,0-.42-.22.73.73,0,0,0-.46,0,.78.78,0,0,0-.36.36,1.8,1.8,0,0,0-.15.5Z"/><path class="cls-17" d="M45.47,34.69c0,.1.18.14.25.23a.83.83,0,0,1,.19.27c.08.2-.07.49.09.63a.15.15,0,0,0,.2,0c.19-.17.15-.53.07-.77a1,1,0,0,0-.45-.55.33.33,0,0,0-.33,0C45.44,34.52,45.45,34.62,45.47,34.69Z"/><path class="cls-18" d="M44,39.66a.58.58,0,0,0,.05.14.66.66,0,0,0,.18.19l.22.14a3.81,3.81,0,0,1,1,1,6.34,6.34,0,0,0,1.23,1.4,2.68,2.68,0,0,0,1.23.44,4,4,0,0,0,1.53-.18,5.46,5.46,0,0,0,1.31-.58A14.55,14.55,0,0,1,53,40.68c.18-.07.38-.11.56-.2a.82.82,0,0,0,.43-.39,1.74,1.74,0,0,0,.11-.56c0-.2.09-.4.13-.6a1,1,0,0,0,0-.6.79.79,0,0,0-.35-.35,1.18,1.18,0,0,0-.49-.12,6.91,6.91,0,0,0-1,.1c-.45,0-.9,0-1.34,0s-1.11.14-1.67.17-1.26-.07-1.9-.1a4.51,4.51,0,0,0-.82,0,2,2,0,0,0-.77.3c-.22.15-.39.36-.6.53a1.5,1.5,0,0,1-.33.23.73.73,0,0,1-.38.09.74.74,0,0,0-.21,0,.26.26,0,0,0-.11.07l-.08.1a1.3,1.3,0,0,0-.14.26Z"/><path class="cls-19" d="M46.46,40.35a1.12,1.12,0,0,0,.73,1.32,1.35,1.35,0,0,0,1-.11,1.16,1.16,0,0,0,.45-.4.72.72,0,0,0,.1-.29.77.77,0,0,0,0-.3.7.7,0,0,0-.19-.26.73.73,0,0,0-.3-.16,1.62,1.62,0,0,0-.66-.06,5.69,5.69,0,0,0-1,.12"/><path class="cls-20" d="M45.37,38.26l-.66.43a.83.83,0,0,0-.28.28.69.69,0,0,0,0,.28,2.71,2.71,0,0,1,0,.29,1.25,1.25,0,0,0,0,.19.31.31,0,0,0,0,.1.2.2,0,0,0,0,.09.17.17,0,0,0,.1.06l.13,0a1.19,1.19,0,0,1,.52.3l.44.42a2.52,2.52,0,0,0,1.55.5A7,7,0,0,0,48.77,41L50,40.66a5.46,5.46,0,0,0,1.7-1,6.44,6.44,0,0,1,.7-.57c.22-.14.48-.24.71-.37l0,0s0,0,0-.06a.16.16,0,0,0,0-.12l-.06-.1-.1-.1A1.54,1.54,0,0,0,52.2,38c-.31,0-.63,0-.94,0a8.47,8.47,0,0,1-.86-.25,5.63,5.63,0,0,0-.9-.22,6,6,0,0,0-2.19,0,6.46,6.46,0,0,0-1.94.75Z"/><path class="cls-21" d="M45.29,37.49a4.3,4.3,0,0,0-.86.79,1.88,1.88,0,0,0-.34.58,2.89,2.89,0,0,0-.11.51.69.69,0,0,0,0,.2.38.38,0,0,0,0,.1.22.22,0,0,0,0,.08.26.26,0,0,0,.15.07l.16,0a1.49,1.49,0,0,1,.67.29l.6.43a3.13,3.13,0,0,0,1.56.44,6.86,6.86,0,0,0,1.62-.17A7,7,0,0,0,50,40.49a9.27,9.27,0,0,0,2.4-1.59l.22-.21a1,1,0,0,1,.26-.15,1.06,1.06,0,0,1,.47,0,1.32,1.32,0,0,0,.34,0,.57.57,0,0,0,.18,0,.45.45,0,0,0,.14-.1.34.34,0,0,0,.07-.22A.43.43,0,0,0,54,38a.74.74,0,0,0-.35-.28,3.52,3.52,0,0,0-.61-.18,8.74,8.74,0,0,1-1.83-.67l-.85-.45a4.34,4.34,0,0,0-.91-.4,3.54,3.54,0,0,0-2.18.09,4.78,4.78,0,0,0-2,1.38Z"/><path class="cls-22" d="M50.28,37.65a.36.36,0,0,0-.15-.1.41.41,0,0,0-.19,0,.84.84,0,0,0-.33.16,3.66,3.66,0,0,0-.76.71,2.68,2.68,0,0,0-.62,1.22,1,1,0,0,0,0,.24.43.43,0,0,0,.09.21.42.42,0,0,0,.18.08.5.5,0,0,0,.21,0,.91.91,0,0,0,.33-.22,4.06,4.06,0,0,0,1.28-1.84.78.78,0,0,0,0-.22.39.39,0,0,0-.06-.21Z"/><path class="cls-23" d="M48.93,36.61c0,.12.24.1.36.16s.18.17.3.17.28,0,.29-.14-.19-.24-.32-.29a.68.68,0,0,0-.56,0s-.08.07-.07.11Z"/><path class="cls-24" d="M47,36.54c-.15,0-.4.21-.32.35s.09.08.14.06.12-.18.2-.23,0-.16,0-.18Z"/><ellipse class="cls-25" cx="53.67" cy="38.51" rx="0.61" ry="0.47" transform="translate(1.19 78.62) rotate(-73.06)"/><g class="cls-26"><path class="cls-27" d="M44.75,33.68a2.57,2.57,0,0,1,1.52-.28,10.07,10.07,0,0,1,1.54.34,8.32,8.32,0,0,1,1.1.36,2,2,0,0,1,.87.75l.09.16a.53.53,0,0,0,.12.14.26.26,0,0,0,.17.05l.09,0a.13.13,0,0,0,.06-.07.18.18,0,0,0,0-.1.43.43,0,0,0,0-.11,6.35,6.35,0,0,0-.65-1.27l-.39-.78a4.85,4.85,0,0,0-2.14-2,7.23,7.23,0,0,0-2.86-.72,15.14,15.14,0,0,0-3.42.27,4.59,4.59,0,0,0-1.42.43,1.76,1.76,0,0,0-.57.48,1.28,1.28,0,0,0-.3.67,1.38,1.38,0,0,0,.08.7,2,2,0,0,0,.36.62,9.74,9.74,0,0,0,1,1,10.8,10.8,0,0,0,1.09.94,2.26,2.26,0,0,0,.65.3,1.42,1.42,0,0,0,.71,0,1.63,1.63,0,0,0,.66-.32,3.26,3.26,0,0,0,.53-.52,4.8,4.8,0,0,1,1.06-1Z"/></g><path class="cls-3" d="M60.69,49.83a5.38,5.38,0,0,1,1.88,3.37,8.26,8.26,0,0,1-.18,3,24.93,24.93,0,0,1-.93,2.93,5.45,5.45,0,0,0-.33,1.18,2,2,0,0,0,.17,1.19,1.82,1.82,0,0,0,1.09.83,2.65,2.65,0,0,0,1.37,0A3.29,3.29,0,0,0,65,61.78a4.86,4.86,0,0,0,1.7-3,9.81,9.81,0,0,0-.08-3.5,24.13,24.13,0,0,0-1.33-4.62,13.07,13.07,0,0,0-1.65-3.11c-.69-.93-1.56-1.7-2.24-2.64A15.81,15.81,0,0,0,60,43a3,3,0,0,0-1-.67,1.92,1.92,0,0,0-1.18-.08,1.89,1.89,0,0,0-1.15,1,2.65,2.65,0,0,0-.17,1.55,5.6,5.6,0,0,0,.76,1.88,7,7,0,0,0,1.44,1.8c.62.51,1.37.85,2,1.35Z"/><g class="cls-28"><path class="cls-29" d="M58.28,48.24l.26.24c.63.51,1,1.09,1.6,1.59a6.39,6.39,0,0,1,2.3,3.55,6.54,6.54,0,0,1-.31,2.76,39.08,39.08,0,0,1-1.38,4c-.16.46.32.27.26.76a2.89,2.89,0,0,0,0,.72v-.14a9,9,0,0,1,.5-1.92c.43-1.2.91-2.37,1.25-3.6a6.79,6.79,0,0,0,.12-3.18,5.3,5.3,0,0,0-2.09-3.36c-.77-.58-1.69-.94-2.51-1.45Z"/></g><path class="cls-30" d="M42.31,47.5c.17.26-.11,1.14,3.88.57,0,0-.7.08-1.39.24a10,10,0,0,0-2.73,1.29c-.71.53-1.24,1.21-1.89,1.8,0,0,1.06-1.94,1.32-2.52s0-.55.17-1.42a6.69,6.69,0,0,1,.72-1.68S42,47,42.31,47.5Z"/><path class="cls-31" d="M55.13,47.27a4,4,0,0,1-2.28.61c-1,.11-3.65.07-3.65.07a6.72,6.72,0,0,1,1.24.15,23.27,23.27,0,0,1,3.59.69,9.1,9.1,0,0,1,1.94.86c.85.53,1.47,1.38,2.28,2A2.87,2.87,0,0,0,58,50.25a13.68,13.68,0,0,1-1.47-2.36,17.19,17.19,0,0,1-.38-2.55,3.16,3.16,0,0,1-1,1.93Z"/><path class="cls-32" d="M47.49,46.06l-.12.73a2,2,0,0,1-.09.35.92.92,0,0,1-.2.31,1,1,0,0,1-.28.16,4.06,4.06,0,0,1-1.19.34l.49,0a1.54,1.54,0,0,1,.31,0,.7.7,0,0,1,.28.12.68.68,0,0,1,.22.26,1.65,1.65,0,0,1,.17.66,6.31,6.31,0,0,1,0,.87,2.9,2.9,0,0,1,.12-.57,2.53,2.53,0,0,1,.53-.91,2,2,0,0,1,.31-.27,1.72,1.72,0,0,1,1.22-.3,1.9,1.9,0,0,1-1.21-.38,1.48,1.48,0,0,1-.44-.49,1.34,1.34,0,0,1-.12-1Z"/><path class="cls-33" d="M46.45,51.79a15.1,15.1,0,0,0-.43,2.4c-.1,1.15-.08,2.31-.14,3.46a13,13,0,0,0,0,2.92,5.17,5.17,0,0,0,.43,1.33,2.76,2.76,0,0,0,.07-.49,15.27,15.27,0,0,0-.1-2.34A35.4,35.4,0,0,1,46.47,55a25.63,25.63,0,0,0,0-3.16Z"/><path class="cls-29" d="M55.91,40c-.37.33.17.83.42,1.41.16.37.6.88,1,.8s.51-.52.48-.84c-.06-.62-.58-.77-1-1s-.71-.62-1-.39Z"/><path class="cls-34" d="M67.59,67.12a2.67,2.67,0,0,1-.36.74A5.07,5.07,0,0,1,65.9,69.1a30.05,30.05,0,0,0-2.52,1.84,12.27,12.27,0,0,0-1.46,1.51,15.1,15.1,0,0,1-1.17,1.35,4,4,0,0,1-1.52.93,3.73,3.73,0,0,1-2,0A2.11,2.11,0,0,1,56,74.09a2.59,2.59,0,0,1-.41-1.36,15.46,15.46,0,0,1,.14-2.62c.08-.73.15-1.46.18-2.18A22.15,22.15,0,0,0,55.7,64a3.6,3.6,0,0,1-.05-.66,1.1,1.1,0,0,1,.25-.62,1.11,1.11,0,0,1,.55-.3,3,3,0,0,1,.6,0,13.45,13.45,0,0,1,1.42,0l.87.11a4.26,4.26,0,0,0,1.5-.12,11.15,11.15,0,0,1,1.57-.53,2.43,2.43,0,0,1,.66,0,1.2,1.2,0,0,1,.6.23,1.16,1.16,0,0,1,.3.39,2.78,2.78,0,0,1,.21.71c0,.22,0,.45.1.67a2,2,0,0,0,.57.9,5.43,5.43,0,0,0,.86.63,9,9,0,0,0,.91.53,3.81,3.81,0,0,1,.45.23,1,1,0,0,1,.37.32.92.92,0,0,1,.14.67"/><g class="cls-35"><path class="cls-36" d="M70.94,67.75a2.81,2.81,0,0,1-.47.8,5.22,5.22,0,0,1-1.67,1.18,32.66,32.66,0,0,0-3.1,1.63,12.88,12.88,0,0,0-1.83,1.48,15.8,15.8,0,0,1-1.48,1.35,4.34,4.34,0,0,1-1.85.78,4.44,4.44,0,0,1-2.41-.37,2.85,2.85,0,0,1-1.34-1,3.19,3.19,0,0,1-.38-1.67,17.41,17.41,0,0,1,.37-3c.15-.84.29-1.67.38-2.52a25.58,25.58,0,0,0,.06-4.63,4.07,4.07,0,0,1,0-.78,1.17,1.17,0,0,1,.34-.68,1.15,1.15,0,0,1,.67-.23,2.84,2.84,0,0,1,.71.06,15.72,15.72,0,0,1,1.67.28c.34.09.67.22,1,.31a4.75,4.75,0,0,0,1.76.16,15.16,15.16,0,0,1,1.89-.3,2.9,2.9,0,0,1,.77.14,1.65,1.65,0,0,1,.7.38,1.53,1.53,0,0,1,.31.52,3.31,3.31,0,0,1,.2.88,7.38,7.38,0,0,0,.07.81,2.62,2.62,0,0,0,.59,1.16,8.22,8.22,0,0,0,1,.91c.34.29.68.57,1,.82a5.76,5.76,0,0,1,.51.35,1.64,1.64,0,0,1,.41.46,1.09,1.09,0,0,1,.11.81Z"/></g><g class="cls-35"><path class="cls-37" d="M70.42,67.22a2.65,2.65,0,0,1-.43.72A4.9,4.9,0,0,1,68.47,69a27.24,27.24,0,0,0-2.84,1.47A11.67,11.67,0,0,0,64,71.79,12.83,12.83,0,0,1,62.61,73a4,4,0,0,1-1.69.71,4.06,4.06,0,0,1-2.2-.33,2.68,2.68,0,0,1-1.23-.94,2.86,2.86,0,0,1-.34-1.5,15,15,0,0,1,.34-2.74c.13-.75.26-1.51.34-2.27a23.11,23.11,0,0,0,.05-4.16,4.09,4.09,0,0,1,0-.7,1.05,1.05,0,0,1,.31-.61,1,1,0,0,1,.61-.21,2.85,2.85,0,0,1,.65,0c.51.08,1,.13,1.52.26.31.08.62.19.93.28a4.61,4.61,0,0,0,1.61.14,12.7,12.7,0,0,1,1.73-.27,2.78,2.78,0,0,1,.7.12,1.48,1.48,0,0,1,.64.35,1.61,1.61,0,0,1,.29.47,2.39,2.39,0,0,1,.18.79,6,6,0,0,0,0,.85,1.72,1.72,0,0,0,.25.65,4.34,4.34,0,0,0,.42.54,5.4,5.4,0,0,0,1,1c.41.29.9.47,1.33.75a1,1,0,0,1,.33.3.77.77,0,0,1,.11.73Z"/></g><g class="cls-38"><path class="cls-39" d="M70.36,66.92a3.54,3.54,0,0,1-.44.73,3.74,3.74,0,0,1-1.57,1.07c-1,.37-2,.42-3,.83a11,11,0,0,0-1.63,1,6.29,6.29,0,0,1-3,1.24,5.72,5.72,0,0,1-1.09.08,2.43,2.43,0,0,1-1-.29A1.57,1.57,0,0,1,58,71a2.08,2.08,0,0,1-.17-1c0-.89.2-1.76.19-2.64s-.15-1.52-.2-2.29a32.41,32.41,0,0,0,0-4.41,2.75,2.75,0,0,1-.1-.7,1,1,0,0,1,.06-.34.61.61,0,0,1,.19-.28.66.66,0,0,1,.26-.11.82.82,0,0,1,.27,0,4.77,4.77,0,0,1,.54.15c.51.16,1,.15,1.56.27.32.07.64.18,1,.27a4.4,4.4,0,0,0,1.65.15A12.23,12.23,0,0,1,65,59.81a2.59,2.59,0,0,1,.73.12,1.47,1.47,0,0,1,.65.35,1.64,1.64,0,0,1,.3.47,2,2,0,0,1,.18.8,3,3,0,0,1,0,.43,1.61,1.61,0,0,0,0,.44,1.5,1.5,0,0,0,.19.38l.26.33a7.49,7.49,0,0,1,.6,1,2.91,2.91,0,0,0,.69,1,9.07,9.07,0,0,0,1.36.76,1.27,1.27,0,0,1,.35.3.85.85,0,0,1,.11.74Z"/></g><path class="cls-40" d="M57.7,60.81c.55-.15,1,.27,1.42.58a1.47,1.47,0,0,0,1,.18c.52,0,1,.09,1.57,0,1-.09,2-.34,3.09-.39a2.36,2.36,0,0,1,1.48.23c.17.12.43.63.6.44a1.45,1.45,0,0,0-1-1.19c-.42-.07-.84,0-1.26,0-1.25,0-2.49-.26-3.74-.2-.87,0-1.75,0-2.62-.06-.34-.07-.46.23-.64.35"/><path class="cls-41" d="M60.17,50.64c.2,0,1.43,1,1.26,1.41s-.48.15-.71.15-.85.29-.95.11.27-.59.47-.94-.27-.7-.07-.73Z"/><path class="cls-42" d="M42.76,44c0-.24-.37-.27-.52-.15s-.25.45-.14.58.69-.09.66-.43Z"/><path id="Aa" class="cls-43" d="M65.13,61.65a.84.84,0,0,0-.46-.41,1.57,1.57,0,0,0-.61-.1c-.42,0-.83.11-1.24.08a7,7,0,0,1-1-.25,2.19,2.19,0,0,0-1.08,0,1.56,1.56,0,0,0-.91.68,2.2,2.2,0,0,0-.3,1,5.1,5.1,0,0,0,0,1,4.6,4.6,0,0,0,.11.73A2,2,0,0,0,60,65a1.86,1.86,0,0,0,.85.61,2.3,2.3,0,0,0,1.71,0,4.67,4.67,0,0,0,2.25-2.07,4.59,4.59,0,0,0,.4-1,2.22,2.22,0,0,0,.06-.44.9.9,0,0,0-.09-.43Z"/><path id="Aa-2" data-name="Aa" class="cls-44" d="M65.13,61.45a.85.85,0,0,0-.46-.29,1.76,1.76,0,0,0-.61-.07c-.42,0-.83.08-1.24,0a8.51,8.51,0,0,1-1-.18,3,3,0,0,0-1.08,0,1.59,1.59,0,0,0-.91.49,1.32,1.32,0,0,0-.3.7,2.61,2.61,0,0,0,0,.74,2.38,2.38,0,0,0,.11.53,1.14,1.14,0,0,0,.3.49,1.93,1.93,0,0,0,.85.45,3.2,3.2,0,0,0,1.71,0,4.49,4.49,0,0,0,2.25-1.5,3,3,0,0,0,.4-.75,1.13,1.13,0,0,0,.06-.32.53.53,0,0,0-.09-.31Z"/><path class="cls-3" d="M65.92,59.91a1.12,1.12,0,0,0-.33-.48,2,2,0,0,0-.5-.31,5.7,5.7,0,0,0-1.15-.29l-1.1-.21a2.83,2.83,0,0,0-1.16,0,2,2,0,0,0-.89.47,2.54,2.54,0,0,0-.58.83,3.48,3.48,0,0,0-.28,1.75,2.14,2.14,0,0,0,.44,1.23,1.88,1.88,0,0,0,.91.54,3.09,3.09,0,0,0,1.83,0,4.76,4.76,0,0,0,2.41-1.82,2.39,2.39,0,0,0,.43-.91,1.31,1.31,0,0,0,0-.76Z"/><g class="cls-45"><path id="Ab" class="cls-46" d="M61.89,58.42a1.24,1.24,0,0,0-.27,0,2.06,2.06,0,0,0-1.7,2.19,1.92,1.92,0,0,1,.23-.84A1.73,1.73,0,0,1,61.32,59a3.09,3.09,0,0,1,.91,0,8.29,8.29,0,0,1,.87.13,3.49,3.49,0,0,1,1.26.51,1.21,1.21,0,0,1,.24.21.57.57,0,0,1,.14.28.62.62,0,0,1-.09.44,1.48,1.48,0,0,1-.29.37l-.28.25a3.15,3.15,0,0,0,1.23-.45,1.18,1.18,0,0,0,.38-.39.73.73,0,0,0,.08-.54.68.68,0,0,0-.18-.32,1.32,1.32,0,0,0-.28-.25,3.37,3.37,0,0,0-1.53-.58c-.35-.07-.7-.12-1.05-.16a4,4,0,0,0-.84,0Z"/></g><g class="cls-45"><path id="Ab-2" data-name="Ab" class="cls-47" d="M61.89,58.42a1.24,1.24,0,0,0-.27,0,2.06,2.06,0,0,0-1.7,2.19,1.92,1.92,0,0,1,.23-.84A1.73,1.73,0,0,1,61.32,59a3.09,3.09,0,0,1,.91,0,8.29,8.29,0,0,1,.87.13,3.49,3.49,0,0,1,1.26.51,1.21,1.21,0,0,1,.24.21.57.57,0,0,1,.14.28.62.62,0,0,1-.09.44,1.48,1.48,0,0,1-.29.37l-.28.25a3.15,3.15,0,0,0,1.23-.45,1.18,1.18,0,0,0,.38-.39.73.73,0,0,0,.08-.54.68.68,0,0,0-.18-.32,1.32,1.32,0,0,0-.28-.25,3.37,3.37,0,0,0-1.53-.58c-.35-.07-.7-.12-1.05-.16a4,4,0,0,0-.84,0Z"/></g><path class="cls-3" d="M42.75,42.93,39.9,46.49a10.57,10.57,0,0,0-1.59,2.35,17,17,0,0,0-.72,2.33,16.84,16.84,0,0,1-1,2.58c-.36.77-.76,1.53-1.17,2.28a5.8,5.8,0,0,0-.69,1.72,3.61,3.61,0,0,0,.09,1.46,6.68,6.68,0,0,0,.55,1.36,13.2,13.2,0,0,0,4.08,4.7,14.4,14.4,0,0,0,2.46,1.44,3.85,3.85,0,0,0,1.47.41,1.66,1.66,0,0,0,.76-.14,1.36,1.36,0,0,0,.58-.48,1.39,1.39,0,0,0,.2-.91,2.32,2.32,0,0,0-.32-.89,6.48,6.48,0,0,0-1.65-1.61c-1.32-1-2.6-2.1-3.82-3.24a4.69,4.69,0,0,1-.93-1.06,3.89,3.89,0,0,1-.45-1.29A7.27,7.27,0,0,1,38,53.77a13.45,13.45,0,0,1,.59-1.35,15.8,15.8,0,0,1,1.19-2.27,27.12,27.12,0,0,0,1.87-2.57A9.2,9.2,0,0,0,42.38,45Z"/><g class="cls-48"><path class="cls-49" d="M40,49.63a5.45,5.45,0,0,0-1,1.24,17,17,0,0,0-1,2.4,6.23,6.23,0,0,0-.56,1.86c0,.34,0,.67,0,1a1.81,1.81,0,0,1-.18,1,1.26,1.26,0,0,1-.63.53,1.89,1.89,0,0,1,.9.65c.19.25.31.55.47.81a2,2,0,0,0,.49.58,1.43,1.43,0,0,0,.7.31,1.23,1.23,0,0,0,1-.31,22.58,22.58,0,0,1,.87-9.06,3.5,3.5,0,0,0,.13-.56.89.89,0,0,0-.14-.55.69.69,0,0,0-.24-.18.65.65,0,0,0-.31,0,.58.58,0,0,0-.28.12.6.6,0,0,0-.19.23Z"/></g><g class="cls-50"><path class="cls-51" d="M35.86,59.19a1.55,1.55,0,0,1,.85-.08,2,2,0,0,1,.8.34,5.14,5.14,0,0,1,1.19,1.27c.78,1.09,1.54,2.19,2.23,3.34a29,29,0,0,0,1.71,2.77c.42.57.89,1.1,1.31,1.67a5.68,5.68,0,0,1,1,1.87,3.74,3.74,0,0,1-.27,2.69,3.47,3.47,0,0,1-1.31,1.4A3.34,3.34,0,0,1,41.5,75,9.21,9.21,0,0,1,38.57,74c-2-.77-4.07-1-6.08-1.62-.61-.19-1.22-.41-1.84-.58a4.6,4.6,0,0,1-.82-.26,1.38,1.38,0,0,1-.65-.54,1.29,1.29,0,0,1-.16-.64,2.42,2.42,0,0,1,.13-.65c.15-.41.4-.79.56-1.2A5,5,0,0,0,30,66.38c0-.72-.15-1.43-.2-2.16a3.86,3.86,0,0,1,0-1,1.57,1.57,0,0,1,.43-.85A1.59,1.59,0,0,1,31,62a3.77,3.77,0,0,1,.89-.06,8.81,8.81,0,0,0,.89,0,2.13,2.13,0,0,0,.86-.24,2,2,0,0,0,.61-.58,7.71,7.71,0,0,0,.44-.72,4.89,4.89,0,0,1,.46-.72,1.87,1.87,0,0,1,.67-.51Z"/><path class="cls-52" d="M36.28,59.65a1.3,1.3,0,0,1,.78,0,1.78,1.78,0,0,1,.7.35,4.35,4.35,0,0,1,1,1.22c.67,1.08,1.32,2.18,1.94,3.29a21.3,21.3,0,0,0,1.49,2.47c.38.52.81,1,1.2,1.49a5,5,0,0,1,.91,1.67,3.33,3.33,0,0,1-.25,2.4,3.28,3.28,0,0,1-1.21,1.27,3.17,3.17,0,0,1-1.7.41,9.41,9.41,0,0,1-2.69-.83c-1.7-.62-3.54-.7-5.29-1.18-.62-.17-1.23-.4-1.86-.56a6,6,0,0,1-.83-.23,1.38,1.38,0,0,1-.65-.54,1.18,1.18,0,0,1-.15-.61,1.87,1.87,0,0,1,.14-.62c.15-.4.39-.76.54-1.16a4.57,4.57,0,0,0,.22-1.91c0-.64-.16-1.28-.19-1.92a3.52,3.52,0,0,1,0-.86,1.43,1.43,0,0,1,.39-.76,1.52,1.52,0,0,1,.84-.39,3.62,3.62,0,0,1,.93,0,5.92,5.92,0,0,0,.94,0,1.56,1.56,0,0,0,1.43-.91,5.25,5.25,0,0,0,.33-.77,3.86,3.86,0,0,1,.38-.76,1.55,1.55,0,0,1,.64-.55"/><path class="cls-53" d="M36.05,59a1.23,1.23,0,0,1,.78-.09,1.63,1.63,0,0,1,.71.35,3.74,3.74,0,0,1,.91,1.27,33.36,33.36,0,0,0,1.74,3.16c.48.73,1,1.41,1.53,2.13a8.89,8.89,0,0,1,1.42,3.23,3.48,3.48,0,0,1-.23,2.32,2.54,2.54,0,0,1-1.12,1.08,2.85,2.85,0,0,1-1.55.29A10.1,10.1,0,0,1,37.87,72c-1.4-.51-2.9-.63-4.34-1-.6-.16-1.19-.37-1.81-.5a7.16,7.16,0,0,1-.8-.19,1.17,1.17,0,0,1-.63-.5.92.92,0,0,1-.11-.56,1.78,1.78,0,0,1,.14-.55c.15-.35.37-.68.49-1a3.12,3.12,0,0,0,0-1.66,13.53,13.53,0,0,1-.37-1.65,2.61,2.61,0,0,1,0-.74A1.38,1.38,0,0,1,30.8,63a1.55,1.55,0,0,1,.89-.37,4.61,4.61,0,0,1,1,.06,4.58,4.58,0,0,0,1,.08,1.4,1.4,0,0,0,1.42-1.1,5.77,5.77,0,0,0,.16-.94,3.38,3.38,0,0,1,.21-.93,1.35,1.35,0,0,1,.62-.71Z"/><path class="cls-54" d="M39,61.7c.43.8.7,1.71,1.14,2.51s.85,1.49,1.26,2.17c.18.3.6.77,1,1.49s.78,1.56,1,1.87c-.13-.36-.39-1.32-.7-2a9.94,9.94,0,0,0-.82-1.35c-.41-.68-.85-1.29-1.27-1.94-.57-.89-1-1.89-1.64-2.74Z"/></g></g></g></svg>