<svg xmlns="http://www.w3.org/2000/svg" viewBox="0 0 100 100"><defs><style>.cls-1{fill:#3c434d;}.cls-2{fill:#599636;}.cls-3{fill:#6cac48;}.cls-4{fill:#c2bfbf;}</style></defs><g id="Capa_2" data-name="Capa 2"><g id="Capa_1-2" data-name="Capa 1"><path class="cls-1" d="M86.15,0H13.85A13.85,13.85,0,0,0,0,13.85v72.3A13.85,13.85,0,0,0,13.85,100h72.3A13.85,13.85,0,0,0,100,86.15V13.85A13.85,13.85,0,0,0,86.15,0Zm8.71,82.43A12.44,12.44,0,0,1,82.43,94.86H17.57A12.44,12.44,0,0,1,5.14,82.43V17.57A12.44,12.44,0,0,1,17.57,5.14H82.43A12.44,12.44,0,0,1,94.86,17.57Z"/><path class="cls-2" d="M49.84,25.14l1.34,2.5a7.25,7.25,0,0,0,1,1.26,35.19,35.19,0,0,1,3.13,3.54,30.66,30.66,0,0,1,4.87,9.83,24.36,24.36,0,0,1,1,6.67,23.58,23.58,0,0,1-6.88,17.37,20.41,20.41,0,0,1-2.45,2.1c-.46,0-.68-.36-.87-.68a5.33,5.33,0,0,1-.68-2,9,9,0,0,1-.22-2.48v-.38C50.09,62.83,49.68,25.33,49.84,25.14Z"/><path class="cls-3" d="M49.84,25.05c-.05-.11-.11,0-.16,0a2.48,2.48,0,0,1-.46,1.5,7.57,7.57,0,0,1-1.2,1.2,26.28,26.28,0,0,0-5.86,7.46,30,30,0,0,0-3.37,12.2,40.32,40.32,0,0,0,1,8.61A26.08,26.08,0,0,0,46.6,66.8,28.24,28.24,0,0,0,49,68.87c.24,0,.27-.22.32-.38a7.77,7.77,0,0,0,.25-1.06l.55-4.09Z"/><path class="cls-4" d="M51.18,70.07a3.58,3.58,0,0,1,.68-1.66,1.74,1.74,0,0,1-.76-.71,4.88,4.88,0,0,1-.41-.9,15.59,15.59,0,0,1-.57-3.51v-.71c-.14.11-.17,1-.17,1.17a26.67,26.67,0,0,1-.49,3.68A3.22,3.22,0,0,1,49,68.84a.68.68,0,0,0,0,.19,16.26,16.26,0,0,1,.71,4.42V74c0,.66,0,.52.52.74A2.41,2.41,0,0,1,51,75c.16,0,.19-.14.19-.25l-.08-.89V71.35a6,6,0,0,1,.11-1.28Z"/></g></g></svg>