<svg xmlns="http://www.w3.org/2000/svg" viewBox="0 0 100 100"><defs><style>.cls-1{fill:#3c434d;}.cls-2{fill:#00678c;fill-rule:evenodd;}</style></defs><g id="Capa_2" data-name="Capa 2"><g id="Capa_1-2" data-name="Capa 1"><path class="cls-1" d="M86.15,0H13.85A13.85,13.85,0,0,0,0,13.85v72.3A13.85,13.85,0,0,0,13.85,100h72.3A13.85,13.85,0,0,0,100,86.15V13.85A13.85,13.85,0,0,0,86.15,0Zm8.71,82.43A12.44,12.44,0,0,1,82.43,94.86H17.57A12.44,12.44,0,0,1,5.14,82.43V17.57A12.44,12.44,0,0,1,17.57,5.14H82.43A12.44,12.44,0,0,1,94.86,17.57Z"/><path class="cls-2" d="M71.06,63.34a15.86,15.86,0,0,0-6.6,1c-.51.2-1.33.2-1.4.85.28.26.31.7.55,1.08a7.74,7.74,0,0,0,1.77,2.06l2.17,1.55c1.33.81,2.82,1.29,4.12,2.1.75.47,1.49,1.08,2.24,1.59.38.27.61.71,1.09.88v-.11c-.24-.3-.31-.74-.54-1.08l-1-1a16.59,16.59,0,0,0-3.54-3.41c-1.09-.74-3.47-1.76-3.91-3l-.07-.07a14.58,14.58,0,0,0,2.35-.55c1.15-.3,2.21-.23,3.4-.54l1.63-.47v-.3c-.61-.61-1-1.42-1.7-2A45.18,45.18,0,0,0,66,57.73c-1.06-.68-2.42-1.12-3.54-1.69-.41-.21-1.09-.31-1.33-.65a13.46,13.46,0,0,1-1.39-2.6l-2.79-5.88a36.31,36.31,0,0,0-1.73-3.85A34.19,34.19,0,0,0,42,30.42,16.25,16.25,0,0,0,37.7,29l-2.55-.14a13.14,13.14,0,0,1-1.57-1.18c-1.94-1.22-6.94-3.85-8.37-.38-.91,2.2,1.37,4.36,2.14,5.48a14.9,14.9,0,0,1,1.73,2.53c.23.58.31,1.19.55,1.79a38,38,0,0,0,1.77,4.53,17.62,17.62,0,0,0,1.25,2.1c.28.38.75.54.85,1.15a10.25,10.25,0,0,0-.78,2.53c-1.22,3.82-.75,8.56,1,11.37.54.84,1.83,2.7,3.57,2,1.53-.61,1.19-2.53,1.63-4.22.11-.41,0-.68.24-.95v.08l1.4,2.8A19.21,19.21,0,0,0,45,63c.81.61,1.46,1.66,2.48,2V65h-.07c-.2-.31-.51-.44-.78-.68a16.82,16.82,0,0,1-1.77-2A42.52,42.52,0,0,1,41,56.11c-.54-1-1-2.19-1.46-3.24-.21-.41-.21-1-.55-1.22A13,13,0,0,0,37.38,54a18.81,18.81,0,0,0-1,5.1c-.14,0-.08,0-.14.08-1.08-.27-1.46-1.39-1.87-2.33a14.51,14.51,0,0,1-.3-9c.23-.71,1.26-2.94.85-3.61-.21-.65-.89-1-1.26-1.53a14,14,0,0,1-1.23-2.16c-.81-1.89-1.22-4-2.1-5.88A17.92,17.92,0,0,0,28.67,32a18.36,18.36,0,0,1-1.87-2.64c-.17-.38-.4-1-.13-1.39a.52.52,0,0,1,.47-.43c.45-.38,1.71.1,2.15.3a17.31,17.31,0,0,1,3.36,1.69c.48.34,1,1,1.6,1.15H35c1.09.23,2.31.07,3.33.38a21.94,21.94,0,0,1,4.9,2.33A30.08,30.08,0,0,1,53.81,44.94c.41.78.58,1.49.95,2.3.72,1.66,1.6,3.34,2.31,5a22.51,22.51,0,0,0,2.42,4.53C60,57.45,62,57.82,63,58.19a24.52,24.52,0,0,1,2.35,1c1.15.71,2.31,1.52,3.4,2.3.54.4,2.24,1.25,2.34,1.92ZM36.37,34a5.4,5.4,0,0,0-1.39.17v.08H35a11.41,11.41,0,0,0,1.09,1.38l.79,1.62.06-.07a1.9,1.9,0,0,0,.72-1.69,6.47,6.47,0,0,1-.41-.71c-.2-.34-.65-.51-.92-.78Z"/></g></g></svg>