<svg xmlns="http://www.w3.org/2000/svg" viewBox="0 0 100 100"><defs><style>.cls-1{fill:#3c434d;}.cls-2{fill:#8cc84b;}</style></defs><g id="Capa_2" data-name="Capa 2"><g id="Capa_1-2" data-name="Capa 1"><path class="cls-1" d="M86.15,0H13.85A13.85,13.85,0,0,0,0,13.85v72.3A13.85,13.85,0,0,0,13.85,100h72.3A13.85,13.85,0,0,0,100,86.15V13.85A13.85,13.85,0,0,0,86.15,0Zm8.71,82.43A12.44,12.44,0,0,1,82.43,94.86H17.57A12.44,12.44,0,0,1,5.14,82.43V17.57A12.44,12.44,0,0,1,17.57,5.14H82.43A12.44,12.44,0,0,1,94.86,17.57Z"/><path class="cls-2" d="M47.94,25.53a4.17,4.17,0,0,1,4.08,0L70.76,36.1a3.83,3.83,0,0,1,1.94,3.31V60.59A3.89,3.89,0,0,1,70.61,64L52,74.49a4.09,4.09,0,0,1-4.14-.11l-5.6-3.23a3.21,3.21,0,0,1-1.07-.78c.23-.32.66-.36,1-.5a12.32,12.32,0,0,0,2.21-1,.5.5,0,0,1,.57,0l4.77,2.76c.34.2.69-.06,1-.23L69,61.08a.61.61,0,0,0,.33-.6v-21a.67.67,0,0,0-.39-.66L50.35,28.38a.65.65,0,0,0-.73,0L31.06,38.87a.66.66,0,0,0-.4.65v21a.6.6,0,0,0,.34.59l5,2.8a3.89,3.89,0,0,0,3.1.41,2.37,2.37,0,0,0,1.53-2.21V41.24a.52.52,0,0,1,.57-.53h2.38a.55.55,0,0,1,.52.63v21a5.35,5.35,0,0,1-2.49,4.81,7.65,7.65,0,0,1-6.85-.19L29.39,64A3.83,3.83,0,0,1,27.3,60.6V39.43a3.85,3.85,0,0,1,2-3.36Zm5.4,14.68c2.71-.15,5.61-.1,8,1.24a6.06,6.06,0,0,1,3,5.26.56.56,0,0,1-.62.42H61.38c-.33,0-.52-.3-.57-.59a3.55,3.55,0,0,0-1.71-2.48,10.23,10.23,0,0,0-4.72-.68,6.38,6.38,0,0,0-3.37.84,2.14,2.14,0,0,0-.71,2.39c.25.6,1,.79,1.51,1,3.27.85,6.73.78,9.93,1.89a4.69,4.69,0,0,1,3.08,2.74,5.87,5.87,0,0,1-1,5.58,7.88,7.88,0,0,1-4.2,2.26,20.06,20.06,0,0,1-6.33.27,10,10,0,0,1-5.57-2.1,5.8,5.8,0,0,1-1.88-4.61.53.53,0,0,1,.58-.47h2.35a.55.55,0,0,1,.56.55,3.59,3.59,0,0,0,1.34,2.51c1.61,1,3.63,1,5.47,1,1.53-.07,3.24-.09,4.49-1.1a2.45,2.45,0,0,0,.67-2.36c-.19-.7-.94-1-1.56-1.26-3.23-1-6.73-.65-9.92-1.8a4.82,4.82,0,0,1-3-2.66,5.44,5.44,0,0,1,1.08-5.66,8.73,8.73,0,0,1,5.45-2.18Z"/></g></g></svg>