<svg xmlns="http://www.w3.org/2000/svg" viewBox="0 0 100 100"><defs><style>.cls-1{fill:#3c434d;}.cls-2{stroke:#000;stroke-width:5.37px;}.cls-2,.cls-7,.cls-8{stroke-miterlimit:10;}.cls-3{fill:#336791;}.cls-4,.cls-5,.cls-6{fill:none;stroke-width:1.79px;}.cls-4,.cls-5,.cls-6,.cls-7,.cls-8{stroke:#fff;}.cls-4,.cls-5{stroke-linecap:round;}.cls-4,.cls-6{stroke-linejoin:round;}.cls-5{stroke-linejoin:bevel;}.cls-7,.cls-8{fill:#fff;}.cls-7{stroke-width:0.6px;}.cls-8{stroke-width:0.3px;}</style></defs><g id="Capa_2" data-name="Capa 2"><g id="Capa_1-2" data-name="Capa 1"><path class="cls-1" d="M86.15,0H13.85A13.85,13.85,0,0,0,0,13.85v72.3A13.85,13.85,0,0,0,13.85,100h72.3A13.85,13.85,0,0,0,100,86.15V13.85A13.85,13.85,0,0,0,86.15,0Zm8.71,82.43A12.44,12.44,0,0,1,82.43,94.86H17.57A12.44,12.44,0,0,1,5.14,82.43V17.57A12.44,12.44,0,0,1,17.57,5.14H82.43A12.44,12.44,0,0,1,94.86,17.57Z"/><path class="cls-2" d="M63.05,62.4c.35-2.88.25-3.3,2.39-2.84l.55,0a12.84,12.84,0,0,0,5.1-.85c2.73-1.27,4.35-3.39,1.66-2.83-6.15,1.27-6.59-.82-6.59-.82,6.49-9.62,9.2-21.85,6.86-24.84-6.39-8.16-17.44-4.3-17.63-4.2l-.06,0a20.65,20.65,0,0,0-4.1-.43,10.18,10.18,0,0,0-6.49,1.94S25,19.48,25.94,37.82c.19,3.9,5.59,29.54,12,21.79,2.36-2.84,4.63-5.24,4.63-5.24a6,6,0,0,0,3.9,1l.11-.09a4.53,4.53,0,0,0,0,1.1c-1.65,1.85-1.17,2.18-4.48,2.86s-1.38,1.92-.1,2.24A6.81,6.81,0,0,0,49.68,59l-.1.39c.65.52.61,3.74.7,6A21.94,21.94,0,0,0,51,71.15c.47,1.27,1,4.53,5.38,3.62C60,74,62.8,72.86,63.06,62.42"/><path class="cls-3" d="M72.73,56c-6.14,1.26-6.59-.82-6.59-.82,6.49-9.62,9.2-21.85,6.86-24.84-6.38-8.16-17.44-4.3-17.62-4.2h-.06a21.77,21.77,0,0,0-4.1-.42,10.12,10.12,0,0,0-6.49,1.94S25,19.5,25.92,37.84c.2,3.9,5.59,29.54,12,21.78,2.38-2.85,4.65-5.25,4.65-5.25a6,6,0,0,0,3.9,1l.11-.09a4.53,4.53,0,0,0,0,1.1c-1.65,1.85-1.17,2.18-4.48,2.86s-1.38,1.92-.1,2.24A6.81,6.81,0,0,0,49.68,59l-.1.39c.65.52,1.11,3.39,1,6s-.13,4.38.38,5.78,1,4.52,5.38,3.61C60,74,61.9,72,62.16,68.59c.19-2.39.61-2,.64-4.18l.34-1c.39-3.25.06-4.3,2.31-3.81l.54.05a12.48,12.48,0,0,0,5.08-.86c2.73-1.26,4.35-3.38,1.66-2.82Z"/><path class="cls-4" d="M49.94,57.79c-.17,6.05,0,12.14.63,13.6s1.86,4.36,6.22,3.43c3.64-.78,5-2.29,5.54-5.63l1.35-10.66m-19-31.06S25,19.4,25.9,37.74c.2,3.9,5.59,29.54,12,21.78,2.35-2.83,4.48-5.05,4.48-5.05M55.37,26c-.68.22,11-4.26,17.61,4.21,2.33,3-.38,15.21-6.86,24.84"/><path class="cls-5" d="M66.12,55s.42,2.09,6.59.82c2.69-.56,1.07,1.56-1.66,2.82-2.24,1-7.27,1.31-7.35-.13-.21-3.7,2.65-2.58,2.44-3.51s-1.47-1.65-2.31-3.7c-.74-1.79-10.12-15.5,2.6-13.46.47-.1-3.31-12.12-15.22-12.29S39.69,40.21,39.69,40.21"/><path class="cls-6" d="M46.61,56.3c-1.66,1.86-1.17,2.18-4.48,2.87s-1.39,1.92-.1,2.24a6.83,6.83,0,0,0,7.61-2.47,2.28,2.28,0,0,0-1-3.12,1.49,1.49,0,0,0-2,.49Z"/><path class="cls-4" d="M46.5,56.27c-.17-1.09.36-2.38.92-3.9.85-2.27,2.8-4.55,1.24-11.77-1.16-5.38-9-1.12-9-.39a36.45,36.45,0,0,1-.13,7.15c-.63,4.51,2.87,8.33,6.9,7.94"/><path class="cls-7" d="M44.64,40.1a1.37,1.37,0,0,0,1.1,1A1.18,1.18,0,0,0,47,40.43c0-.26-.45-.53-1.09-.62S44.68,39.86,44.64,40.1Z"/><path class="cls-8" d="M64.12,39.59c0,.25-.45.92-1.09,1a1.2,1.2,0,0,1-1.23-.68c0-.25.46-.53,1.1-.61S64.09,39.35,64.12,39.59Z"/><path class="cls-4" d="M66.41,37.87c.11,2-.42,3.28-.49,5.37-.1,3,1.44,6.48-.88,9.94"/></g></g></svg>