<svg xmlns="http://www.w3.org/2000/svg" xmlns:xlink="http://www.w3.org/1999/xlink" viewBox="0 0 100 100"><defs><style>.cls-1{fill:#3c434d;}.cls-2{fill:url(#Degradado_sin_nombre_3);}.cls-3{fill:url(#Degradado_sin_nombre_2);}.cls-4{fill:#fff;}</style><linearGradient id="Degradado_sin_nombre_3" x1="2280.35" y1="-1062.04" x2="2163.45" y2="-1061.11" gradientTransform="matrix(0.32, 0, 0, -0.32, -675.2, -292.14)" gradientUnits="userSpaceOnUse"><stop offset="0" stop-color="#366a96"/><stop offset="1" stop-color="#3679b0"/></linearGradient><linearGradient id="Degradado_sin_nombre_2" x1="2321.36" y1="-1102.27" x2="2089.96" y2="-1102.27" gradientTransform="matrix(0.32, 0, 0, -0.32, -675.2, -292.14)" gradientUnits="userSpaceOnUse"><stop offset="0" stop-color="#ffc836"/><stop offset="1" stop-color="#ffe873"/></linearGradient></defs><g id="Capa_2" data-name="Capa 2"><g id="Capa_1-2" data-name="Capa 1"><path class="cls-1" d="M86.15,0H13.85A13.85,13.85,0,0,0,0,13.85v72.3A13.85,13.85,0,0,0,13.85,100h72.3A13.85,13.85,0,0,0,100,86.15V13.85A13.85,13.85,0,0,0,86.15,0Zm8.71,82.43A12.44,12.44,0,0,1,82.43,94.86H17.57A12.44,12.44,0,0,1,5.14,82.43V17.57A12.44,12.44,0,0,1,17.57,5.14H82.43A12.44,12.44,0,0,1,94.86,17.57Z"/><path class="cls-2" d="M37.65,31.69c0-3.44.94-5.31,6.16-6.21a39.63,39.63,0,0,1,12.31,0c3.34.54,6.15,3,6.15,6.21V43.05a6.1,6.1,0,0,1-6.15,6.06H43.81a7.72,7.72,0,0,0-7.7,7.42V62H31.88c-3.58,0-5.67-2.53-6.54-6.06a21.45,21.45,0,0,1,0-12.12,7.64,7.64,0,0,1,7.69-6H50V36.23H37.65V31.69Z"/><path class="cls-3" d="M62.27,68c0,3.44-3.05,5.18-6.15,6a21.28,21.28,0,0,1-12.31,0c-3.26-.93-6.16-2.82-6.16-6V56.68a6.18,6.18,0,0,1,6.16-6.06H56.12a7.79,7.79,0,0,0,7.7-7.57v-5.3h4.61c3.59,0,5.27,2.6,6.16,6.06,1.23,4.79,1.28,8.37,0,12.11S72,62,68.43,62H50v1.51H62.27V68Z"/><path class="cls-4" d="M40.73,30.94A2.31,2.31,0,1,1,43,33.21,2.29,2.29,0,0,1,40.73,30.94ZM54.58,68.79a2.31,2.31,0,1,1,2.31,2.27A2.29,2.29,0,0,1,54.58,68.79Z"/></g></g></svg>