<svg xmlns="http://www.w3.org/2000/svg" viewBox="0 0 100 100"><defs><style>.cls-1{fill:#3c434d;}.cls-2{fill:#00d8ff;}.cls-3{fill:none;stroke:#00d8ff;stroke-miterlimit:10;stroke-width:2.73px;}</style></defs><g id="Capa_2" data-name="Capa 2"><g id="Capa_1-2" data-name="Capa 1"><path class="cls-1" d="M86.15,0H13.85A13.85,13.85,0,0,0,0,13.85v72.3A13.85,13.85,0,0,0,13.85,100h72.3A13.85,13.85,0,0,0,100,86.15V13.85A13.85,13.85,0,0,0,86.15,0Zm8.71,82.43A12.44,12.44,0,0,1,82.43,94.86H17.57A12.44,12.44,0,0,1,5.14,82.43V17.57A12.44,12.44,0,0,1,17.57,5.14H82.43A12.44,12.44,0,0,1,94.86,17.57Z"/><circle class="cls-2" cx="50" cy="49.96" r="4.66"/><path class="cls-3" d="M50,40.47a52.38,52.38,0,0,1,16.47,2.41C71.75,44.7,75,47.46,75,50s-3.44,5.53-9.12,7.41A52.61,52.61,0,0,1,50,59.53c-6.09,0-11.87-.69-16.2-2.18C28.31,55.48,25,52.51,25,50s3.1-5.22,8.31-7A52.7,52.7,0,0,1,50,40.47Z"/><path class="cls-3" d="M41.75,45.24A52.29,52.29,0,0,1,52.06,32.18c4.21-3.67,8.23-5.1,10.39-3.86s3.07,5.75,1.86,11.61a52.77,52.77,0,0,1-6.05,14.83,52.6,52.6,0,0,1-10,12.95c-4.37,3.82-8.59,5.2-10.8,3.93s-3-5.3-1.94-10.72a53.06,53.06,0,0,1,6.21-15.68Z"/><path class="cls-3" d="M41.75,54.78a52.54,52.54,0,0,1-6.16-15.46c-1.07-5.48-.32-9.68,1.85-10.93s6.51.21,11,4.18a52.46,52.46,0,0,1,9.83,12.66,52.45,52.45,0,0,1,6.23,15.11c1.13,5.69.21,10-2,11.32S56.42,71.59,52.24,68A52.72,52.72,0,0,1,41.75,54.78Z"/></g></g></svg>