<svg xmlns="http://www.w3.org/2000/svg" viewBox="0 0 100 100"><defs><style>.cls-1{fill:#3c434d;}.cls-2{fill:#007acc;}</style></defs><g id="Capa_2" data-name="Capa 2"><g id="Capa_1-2" data-name="Capa 1"><path class="cls-1" d="M86.15,0H13.85A13.85,13.85,0,0,0,0,13.85v72.3A13.85,13.85,0,0,0,13.85,100h72.3A13.85,13.85,0,0,0,100,86.15V13.85A13.85,13.85,0,0,0,86.15,0Zm8.71,82.43A12.44,12.44,0,0,1,82.43,94.86H17.57A12.44,12.44,0,0,1,5.14,82.43V17.57A12.44,12.44,0,0,1,17.57,5.14H82.43A12.44,12.44,0,0,1,94.86,17.57Z"/><path class="cls-2" d="M25,50V68.79A6.21,6.21,0,0,0,31.21,75H68.79A6.21,6.21,0,0,0,75,68.79V31.21A6.21,6.21,0,0,0,68.79,25H31.21A6.21,6.21,0,0,0,25,31.21Zm40.29-2a6.26,6.26,0,0,1,3.13,1.8,8.54,8.54,0,0,1,1.2,1.6c0,.07-2.16,1.53-3.48,2.34,0,0-.24-.17-.45-.49a2.82,2.82,0,0,0-2.35-1.41c-1.52-.1-2.5.69-2.48,2a1.82,1.82,0,0,0,.21.93c.33.69,1,1.11,2.9,2,3.58,1.54,5.11,2.55,6.06,4a7.26,7.26,0,0,1,.58,6.09c-.79,2.08-2.76,3.5-5.53,4a15.21,15.21,0,0,1-3.81,0,9.11,9.11,0,0,1-5.09-2.65,8.38,8.38,0,0,1-1.3-1.93,4.66,4.66,0,0,1,.46-.29l1.86-1.07L58.63,64l.31.44a6.62,6.62,0,0,0,1.89,1.82A4.65,4.65,0,0,0,65.7,66,2.18,2.18,0,0,0,66,63.23c-.39-.55-1.19-1-3.44-2-2.58-1.11-3.69-1.8-4.71-2.89a6.72,6.72,0,0,1-1.37-2.5,10.05,10.05,0,0,1-.09-3.19A6.09,6.09,0,0,1,61.5,47.9a12.67,12.67,0,0,1,3.79.11ZM53.56,50.09v2H47.06V70.63h-4.6V52.14H36v-2L36,48.07s4,0,8.78,0l8.74,0Z"/></g></g></svg>